<svg width="407" height="338" viewBox="0 0 407 338" fill="none" xmlns="http://www.w3.org/2000/svg">
<g clip-path="url(#clip0_18933_834)">
<rect width="406.228" height="337.449" rx="32.2403" fill="#99D100"/>
<rect x="0.276153" y="0.394712" width="113.73" height="151.867" rx="20.105" transform="matrix(0.984808 0.173648 -0.174411 0.984673 -51.3957 -115.012)" fill="#BCEC30"/>
<rect x="0.276153" y="0.394712" width="113.73" height="151.867" rx="20.105" transform="matrix(0.984808 0.173648 -0.174411 0.984673 -51.3957 -115.012)" stroke="#202027" stroke-width="0.681525"/>
<rect x="0.276153" y="0.394712" width="113.73" height="151.867" rx="20.105" transform="matrix(0.984808 0.173648 -0.174411 0.984673 67.8914 -93.9785)" fill="#BCEC30"/>
<rect x="0.276153" y="0.394712" width="113.73" height="151.867" rx="20.105" transform="matrix(0.984808 0.173648 -0.174411 0.984673 67.8914 -93.9785)" stroke="#202027" stroke-width="0.681525"/>
<mask id="path-5-outside-1_18933_834" maskUnits="userSpaceOnUse" x="90.4475" y="-31.5434" width="38.6647" height="45.9283" fill="black">
<rect fill="white" x="90.4475" y="-31.5434" width="38.6647" height="45.9283"/>
<path d="M105.398 -4.2338C105.704 -5.96625 106.337 -7.31965 107.296 -8.294C108.261 -9.30299 109.591 -10.3548 111.286 -11.4495C112.456 -12.2078 113.339 -12.8561 113.935 -13.3942C114.537 -13.967 114.902 -14.6172 115.031 -15.3448C115.209 -16.3497 114.917 -17.223 114.155 -17.9648C113.434 -18.7351 112.397 -19.2394 111.046 -19.4777C109.66 -19.7221 108.337 -19.616 107.076 -19.1593C105.851 -18.6965 104.787 -17.9372 103.885 -16.8813L96.8767 -22.4049C98.7272 -24.5798 101.072 -26.1138 103.91 -27.0068C106.748 -27.8999 110.004 -28.0225 113.678 -27.3748C117.801 -26.6477 120.957 -25.1979 123.146 -23.0255C125.375 -20.8816 126.216 -18.2678 125.67 -15.184C125.418 -13.7634 124.952 -12.5415 124.27 -11.5183C123.595 -10.5297 122.843 -9.71537 122.015 -9.07529C121.227 -8.46376 120.214 -7.78494 118.974 -7.03884C117.618 -6.24176 116.598 -5.5283 115.914 -4.89843C115.237 -4.30321 114.816 -3.53784 114.65 -2.60232L105.398 -4.2338ZM107.593 10.303C105.895 10.0036 104.584 9.23639 103.659 8.00138C102.741 6.73173 102.416 5.33462 102.686 3.81005C102.962 2.25084 103.727 1.06353 104.979 0.248131C106.266 -0.561161 107.776 -0.813047 109.508 -0.507526C111.241 -0.202005 112.573 0.550935 113.504 1.75129C114.435 2.95165 114.762 4.33144 114.486 5.89065C114.216 7.41521 113.431 8.61679 112.132 9.49538C110.839 10.3393 109.326 10.6085 107.593 10.303Z"/>
</mask>
<path d="M105.398 -4.2338C105.704 -5.96625 106.337 -7.31965 107.296 -8.294C108.261 -9.30299 109.591 -10.3548 111.286 -11.4495C112.456 -12.2078 113.339 -12.8561 113.935 -13.3942C114.537 -13.967 114.902 -14.6172 115.031 -15.3448C115.209 -16.3497 114.917 -17.223 114.155 -17.9648C113.434 -18.7351 112.397 -19.2394 111.046 -19.4777C109.66 -19.7221 108.337 -19.616 107.076 -19.1593C105.851 -18.6965 104.787 -17.9372 103.885 -16.8813L96.8767 -22.4049C98.7272 -24.5798 101.072 -26.1138 103.91 -27.0068C106.748 -27.8999 110.004 -28.0225 113.678 -27.3748C117.801 -26.6477 120.957 -25.1979 123.146 -23.0255C125.375 -20.8816 126.216 -18.2678 125.67 -15.184C125.418 -13.7634 124.952 -12.5415 124.27 -11.5183C123.595 -10.5297 122.843 -9.71537 122.015 -9.07529C121.227 -8.46376 120.214 -7.78494 118.974 -7.03884C117.618 -6.24176 116.598 -5.5283 115.914 -4.89843C115.237 -4.30321 114.816 -3.53784 114.65 -2.60232L105.398 -4.2338ZM107.593 10.303C105.895 10.0036 104.584 9.23639 103.659 8.00138C102.741 6.73173 102.416 5.33462 102.686 3.81005C102.962 2.25084 103.727 1.06353 104.979 0.248131C106.266 -0.561161 107.776 -0.813047 109.508 -0.507526C111.241 -0.202005 112.573 0.550935 113.504 1.75129C114.435 2.95165 114.762 4.33144 114.486 5.89065C114.216 7.41521 113.431 8.61679 112.132 9.49538C110.839 10.3393 109.326 10.6085 107.593 10.303Z" fill="white"/>
<path d="M105.398 -4.2338L104.856 -4.32927L104.76 -3.78788L105.302 -3.6924L105.398 -4.2338ZM107.296 -8.294L107.688 -7.90857L107.693 -7.91425L107.296 -8.294ZM111.286 -11.4495L111.584 -10.9878L111.584 -10.9882L111.286 -11.4495ZM113.935 -13.3942L114.304 -12.9865L114.309 -12.9913L114.314 -12.9962L113.935 -13.3942ZM114.155 -17.9648L113.753 -17.5889L113.762 -17.5796L113.771 -17.5708L114.155 -17.9648ZM107.076 -19.1593L106.889 -19.6762L106.882 -19.6736L107.076 -19.1593ZM103.885 -16.8813L103.545 -16.4495L103.96 -16.1223L104.304 -16.5245L103.885 -16.8813ZM96.8767 -22.4049L96.458 -22.7609L96.0881 -22.3262L96.5361 -21.9731L96.8767 -22.4049ZM103.91 -27.0068L104.075 -26.4824V-26.4824L103.91 -27.0068ZM123.146 -23.0255L122.758 -22.6352L122.764 -22.6292L123.146 -23.0255ZM124.27 -11.5183L124.724 -11.2084L124.728 -11.2138L124.27 -11.5183ZM122.015 -9.07529L121.679 -9.51012L121.678 -9.50932L122.015 -9.07529ZM118.974 -7.03884L119.252 -6.56494L119.257 -6.56787L118.974 -7.03884ZM115.914 -4.89843L116.277 -4.48556L116.287 -4.49438L115.914 -4.89843ZM114.65 -2.60232L114.554 -2.06092L115.096 -1.96545L115.192 -2.50684L114.65 -2.60232ZM103.659 8.00138L103.214 8.32384L103.219 8.33105L103.659 8.00138ZM104.979 0.248131L104.686 -0.217205L104.679 -0.212456L104.979 0.248131ZM113.504 1.75129L113.069 2.08835V2.08835L113.504 1.75129ZM112.132 9.49538L112.432 9.95571L112.44 9.95066L112.132 9.49538ZM105.939 -4.13832C106.232 -5.7926 106.827 -7.03358 107.688 -7.90861L106.904 -8.67939C105.848 -7.60572 105.177 -6.13991 104.856 -4.32927L105.939 -4.13832ZM107.693 -7.91425C108.619 -8.88175 109.911 -9.90711 111.584 -10.9878L110.987 -11.9112C109.271 -10.8025 107.903 -9.72423 106.899 -8.67375L107.693 -7.91425ZM111.584 -10.9882C112.765 -11.7527 113.676 -12.4194 114.304 -12.9865L113.566 -13.802C113.003 -13.2927 112.148 -12.663 110.987 -11.9108L111.584 -10.9882ZM114.314 -12.9962C114.99 -13.6394 115.421 -14.392 115.572 -15.2494L114.49 -15.4403C114.384 -14.8424 114.084 -14.2946 113.556 -13.7922L114.314 -12.9962ZM115.572 -15.2494C115.784 -16.4423 115.425 -17.4965 114.539 -18.3588L113.771 -17.5708C114.409 -16.9495 114.634 -16.257 114.49 -15.4403L115.572 -15.2494ZM114.557 -18.3406C113.733 -19.2206 112.575 -19.7664 111.142 -20.0191L110.95 -18.9363C112.22 -18.7125 113.135 -18.2496 113.753 -17.5889L114.557 -18.3406ZM111.142 -20.0191C109.666 -20.2794 108.245 -20.1673 106.889 -19.6761L107.263 -18.6425C108.428 -19.0647 109.654 -19.1649 110.95 -18.9363L111.142 -20.0191ZM106.882 -19.6736C105.565 -19.176 104.426 -18.3601 103.467 -17.2381L104.304 -16.5245C105.149 -17.5142 106.137 -18.217 107.27 -18.6451L106.882 -19.6736ZM104.226 -17.3131L97.2174 -22.8367L96.5361 -21.9731L103.545 -16.4495L104.226 -17.3131ZM97.2955 -22.0489C99.0759 -24.1415 101.331 -25.6191 104.075 -26.4824L103.745 -27.5312C100.812 -26.6084 98.3784 -25.0181 96.458 -22.7609L97.2955 -22.0489ZM104.075 -26.4824C106.81 -27.3431 109.974 -27.4696 113.582 -26.8334L113.773 -27.9162C110.035 -28.5754 106.687 -28.4566 103.745 -27.5312L104.075 -26.4824ZM113.582 -26.8334C117.634 -26.1189 120.673 -24.705 122.758 -22.6353L123.533 -23.4157C121.242 -25.6908 117.969 -27.1764 113.773 -27.9162L113.582 -26.8334ZM122.764 -22.6292C124.859 -20.6142 125.643 -18.1855 125.128 -15.2795L126.211 -15.0886C126.789 -18.3501 125.89 -21.1491 123.527 -23.4218L122.764 -22.6292ZM125.128 -15.2795C124.888 -13.9208 124.445 -12.7728 123.812 -11.8227L124.728 -11.2138C125.458 -12.3102 125.949 -13.6061 126.211 -15.0886L125.128 -15.2795ZM123.816 -11.8281C123.168 -10.8804 122.455 -10.1103 121.679 -9.51012L122.351 -8.64047C123.231 -9.32044 124.021 -10.179 124.724 -11.2084L123.816 -11.8281ZM121.678 -9.50932C120.913 -8.91563 119.919 -8.2492 118.691 -7.5098L119.257 -6.56787C120.508 -7.32068 121.542 -8.01188 122.352 -8.64127L121.678 -9.50932ZM118.695 -7.5127C117.325 -6.7074 116.267 -5.97091 115.542 -5.30248L116.287 -4.49438C116.929 -5.08568 117.91 -5.77613 119.252 -6.56497L118.695 -7.5127ZM115.552 -5.31119C114.775 -4.62884 114.295 -3.74908 114.109 -2.69779L115.192 -2.50684C115.337 -3.3266 115.699 -3.97759 116.277 -4.48567L115.552 -5.31119ZM114.746 -3.14371L105.493 -4.77519L105.302 -3.6924L114.554 -2.06092L114.746 -3.14371ZM107.689 9.76162C106.111 9.48339 104.931 8.78154 104.099 7.67172L103.219 8.33105C104.237 9.69124 105.679 10.5238 107.498 10.8444L107.689 9.76162ZM104.105 7.67896C103.272 6.52814 102.984 5.28146 103.228 3.90553L102.145 3.71458C101.848 5.38777 102.209 6.93531 103.214 8.3238L104.105 7.67896ZM103.228 3.90553C103.479 2.48606 104.162 1.43561 105.279 0.708721L104.679 -0.212456C103.291 0.691455 102.446 2.01562 102.145 3.71458L103.228 3.90553ZM105.271 0.71341C106.425 -0.0118301 107.791 -0.251943 109.412 0.0338656L109.604 -1.04892C107.76 -1.37415 106.107 -1.11049 104.686 -0.217148L105.271 0.71341ZM109.412 0.0338656C111.033 0.319674 112.235 1.01265 113.069 2.08835L113.938 1.41424C112.911 0.0892164 111.449 -0.723687 109.604 -1.04892L109.412 0.0338656ZM113.069 2.08835C113.901 3.16039 114.195 4.38152 113.944 5.79517L115.027 5.98612C115.329 4.28136 114.969 2.74292 113.938 1.41424L113.069 2.08835ZM113.944 5.79517C113.701 7.1711 113.002 8.24374 111.824 9.0401L112.44 9.95066C113.861 8.98984 114.731 7.65932 115.027 5.98612L113.944 5.79517ZM111.832 9.03511C110.672 9.7919 109.305 10.0465 107.689 9.76162L107.498 10.8444C109.347 11.1705 111.006 10.8867 112.432 9.95565L111.832 9.03511Z" fill="#202027" mask="url(#path-5-outside-1_18933_834)"/>
<rect x="0.276153" y="0.394712" width="113.73" height="151.867" rx="20.105" transform="matrix(0.984808 0.173648 -0.174411 0.984673 187.178 -72.945)" fill="#BCEC30"/>
<rect x="0.276153" y="0.394712" width="113.73" height="151.867" rx="20.105" transform="matrix(0.984808 0.173648 -0.174411 0.984673 187.178 -72.945)" stroke="#202027" stroke-width="0.681525"/>
<mask id="path-8-outside-2_18933_834" maskUnits="userSpaceOnUse" x="205.098" y="-16.1279" width="47.128" height="56.0059" fill="black">
<rect fill="white" x="205.098" y="-16.1279" width="47.128" height="56.0059"/>
<path d="M223.474 17.3741C223.854 15.2266 224.639 13.549 225.827 12.3413C227.023 11.0906 228.672 9.78681 230.773 8.42991C232.224 7.48993 233.318 6.68642 234.057 6.01938C234.803 5.30938 235.255 4.50342 235.415 3.60149C235.636 2.35597 235.274 1.27346 234.329 0.353973C233.435 -0.600889 232.151 -1.22602 230.475 -1.52141C228.757 -1.82437 227.117 -1.69281 225.555 -1.12672C224.036 -0.553064 222.718 0.38816 221.6 1.69695L212.912 -5.14976C215.206 -7.84565 218.112 -9.74708 221.63 -10.854C225.149 -11.961 229.184 -12.113 233.738 -11.3102C238.849 -10.4089 242.761 -8.61181 245.474 -5.91902C248.236 -3.2616 249.279 -0.0216596 248.602 3.80081C248.29 5.56172 247.712 7.07634 246.867 8.34468C246.03 9.57006 245.098 10.5794 244.072 11.3728C243.096 12.1309 241.839 12.9723 240.302 13.8971C238.621 14.8851 237.357 15.7695 236.51 16.5502C235.671 17.288 235.148 18.2367 234.943 19.3964L223.474 17.3741ZM226.196 35.3931C224.091 35.0219 222.466 34.0709 221.319 32.5401C220.181 30.9663 219.779 29.2345 220.113 27.3448C220.456 25.4121 221.403 23.9403 222.955 22.9296C224.55 21.9265 226.422 21.6142 228.57 21.993C230.717 22.3717 232.368 23.305 233.522 24.7929C234.676 26.2807 235.082 27.991 234.74 29.9238C234.405 31.8135 233.432 33.3029 231.822 34.392C230.219 35.4381 228.344 35.7718 226.196 35.3931Z"/>
</mask>
<path d="M223.474 17.3741C223.854 15.2266 224.639 13.549 225.827 12.3413C227.023 11.0906 228.672 9.78681 230.773 8.42991C232.224 7.48993 233.318 6.68642 234.057 6.01938C234.803 5.30938 235.255 4.50342 235.415 3.60149C235.636 2.35597 235.274 1.27346 234.329 0.353973C233.435 -0.600889 232.151 -1.22602 230.475 -1.52141C228.757 -1.82437 227.117 -1.69281 225.555 -1.12672C224.036 -0.553064 222.718 0.38816 221.6 1.69695L212.912 -5.14976C215.206 -7.84565 218.112 -9.74708 221.63 -10.854C225.149 -11.961 229.184 -12.113 233.738 -11.3102C238.849 -10.4089 242.761 -8.61181 245.474 -5.91902C248.236 -3.2616 249.279 -0.0216596 248.602 3.80081C248.29 5.56172 247.712 7.07634 246.867 8.34468C246.03 9.57006 245.098 10.5794 244.072 11.3728C243.096 12.1309 241.839 12.9723 240.302 13.8971C238.621 14.8851 237.357 15.7695 236.51 16.5502C235.671 17.288 235.148 18.2367 234.943 19.3964L223.474 17.3741ZM226.196 35.3931C224.091 35.0219 222.466 34.0709 221.319 32.5401C220.181 30.9663 219.779 29.2345 220.113 27.3448C220.456 25.4121 221.403 23.9403 222.955 22.9296C224.55 21.9265 226.422 21.6142 228.57 21.993C230.717 22.3717 232.368 23.305 233.522 24.7929C234.676 26.2807 235.082 27.991 234.74 29.9238C234.405 31.8135 233.432 33.3029 231.822 34.392C230.219 35.4381 228.344 35.7718 226.196 35.3931Z" fill="white"/>
<path d="M223.474 17.3741L222.933 17.2786L222.837 17.82L223.378 17.9155L223.474 17.3741ZM225.827 12.3413L226.219 12.7267L226.225 12.721L225.827 12.3413ZM230.773 8.42991L231.071 8.89161L231.071 8.89121L230.773 8.42991ZM234.057 6.01938L234.425 6.42712L234.431 6.42233L234.436 6.41739L234.057 6.01938ZM234.329 0.353973L233.928 0.729802L233.936 0.739097L233.946 0.747978L234.329 0.353973ZM225.555 -1.12672L225.368 -1.64359L225.361 -1.64099L225.555 -1.12672ZM221.6 1.69695L221.259 2.12877L221.674 2.45598L222.018 2.05374L221.6 1.69695ZM212.912 -5.14976L212.493 -5.50576L212.124 -5.07102L212.572 -4.71793L212.912 -5.14976ZM221.63 -10.854L221.795 -10.3297V-10.3297L221.63 -10.854ZM245.474 -5.91902L245.086 -5.52874L245.092 -5.52271L245.474 -5.91902ZM246.867 8.34468L247.321 8.65454L247.325 8.64915L246.867 8.34468ZM244.072 11.3728L243.736 10.938L243.735 10.9388L244.072 11.3728ZM240.302 13.8971L240.581 14.371L240.586 14.3681L240.302 13.8971ZM236.51 16.5502L236.873 16.9631L236.883 16.9543L236.51 16.5502ZM234.943 19.3964L234.847 19.9378L235.389 20.0332L235.485 19.4918L234.943 19.3964ZM221.319 32.5401L220.874 32.8626L220.879 32.8698L221.319 32.5401ZM222.955 22.9296L222.663 22.4643L222.655 22.469L222.955 22.9296ZM233.522 24.7929L233.087 25.1299L233.087 25.1299L233.522 24.7929ZM231.822 34.392L232.122 34.8523L232.13 34.8473L231.822 34.392ZM224.016 17.4696C224.382 15.4003 225.128 13.8351 226.219 12.7267L225.435 11.9559C224.149 13.263 223.327 15.053 222.933 17.2786L224.016 17.4696ZM226.225 12.721C227.381 11.5118 228.992 10.2345 231.071 8.8916L230.474 7.96821C228.352 9.33909 226.666 10.6694 225.43 11.9615L226.225 12.721ZM231.071 8.89121C232.532 7.94508 233.655 7.12307 234.425 6.42712L233.688 5.61163C232.982 6.24977 231.915 7.03479 230.474 7.96861L231.071 8.89121ZM234.436 6.41739C235.256 5.63694 235.774 4.7286 235.957 3.69696L234.874 3.50601C234.737 4.27824 234.35 4.98182 233.678 5.62136L234.436 6.41739ZM235.957 3.69696C236.211 2.26328 235.781 0.99996 234.713 -0.0400323L233.946 0.747978C234.766 1.54696 235.061 2.44865 234.874 3.50601L235.957 3.69696ZM234.731 -0.0218558C233.734 -1.08643 232.329 -1.75296 230.571 -2.0628L230.38 -0.980013C231.973 -0.699072 233.136 -0.115351 233.928 0.729802L234.731 -0.0218558ZM230.571 -2.0628C228.763 -2.38161 227.025 -2.24413 225.368 -1.64355L225.742 -0.609902C227.209 -1.14149 228.751 -1.26713 230.38 -0.980013L230.571 -2.0628ZM225.361 -1.64099C223.75 -1.03259 222.356 -0.034795 221.182 1.34016L222.018 2.05374C223.079 0.811114 224.322 -0.0735406 225.749 -0.612461L225.361 -1.64099ZM221.94 1.26512L213.253 -5.58158L212.572 -4.71793L221.259 2.12877L221.94 1.26512ZM213.331 -4.79375C215.555 -7.40732 218.371 -9.25242 221.795 -10.3297L221.465 -11.3784C217.853 -10.2417 214.857 -8.28399 212.493 -5.50576L213.331 -4.79375ZM221.795 -10.3297C225.21 -11.4042 229.154 -11.5601 233.642 -10.7688L233.833 -11.8516C229.215 -12.666 225.087 -12.5178 221.465 -11.3784L221.795 -10.3297ZM233.642 -10.7688C238.681 -9.88013 242.477 -8.11891 245.086 -5.52879L245.861 -6.30924C243.045 -9.10471 239.017 -10.9376 233.833 -11.8516L233.642 -10.7688ZM245.092 -5.52271C247.721 -2.99413 248.706 0.0606082 248.061 3.70533L249.144 3.89628C249.852 -0.103927 248.752 -3.52908 245.855 -6.31532L245.092 -5.52271ZM248.061 3.70533C247.76 5.40438 247.206 6.84503 246.41 8.0402L247.325 8.64915C248.218 7.30765 248.821 5.71906 249.144 3.89628L248.061 3.70533ZM246.413 8.03483C245.604 9.21937 244.711 10.1845 243.736 10.938L244.408 11.8077C245.486 10.9744 246.456 9.92074 247.321 8.65452L246.413 8.03483ZM243.735 10.9388C242.782 11.679 241.545 12.508 240.019 13.4262L240.586 14.3681C242.134 13.4366 243.41 12.5827 244.409 11.8069L243.735 10.9388ZM240.024 13.4233C238.329 14.4195 237.027 15.3269 236.138 16.1462L236.883 16.9543C237.688 16.2121 238.914 15.3508 240.581 14.371L240.024 13.4233ZM236.147 16.1375C235.209 16.9624 234.627 18.0255 234.402 19.3009L235.485 19.4918C235.669 18.448 236.133 17.6137 236.873 16.963L236.147 16.1375ZM235.039 18.855L223.57 16.8327L223.378 17.9155L234.847 19.9378L235.039 18.855ZM226.292 34.8517C224.307 34.5017 222.812 33.6161 221.76 32.2104L220.879 32.8698C222.119 34.5258 223.875 35.5421 226.1 35.9345L226.292 34.8517ZM221.765 32.2177C220.712 30.7627 220.346 29.1814 220.655 27.4402L219.572 27.2493C219.211 29.2877 219.649 31.1699 220.874 32.8625L221.765 32.2177ZM220.655 27.4402C220.972 25.6473 221.839 24.3124 223.255 23.3902L222.655 22.469C220.967 23.5683 219.939 25.1768 219.572 27.2493L220.655 27.4402ZM223.248 23.3949C224.709 22.4758 226.438 22.1753 228.474 22.5343L228.665 21.4516C226.406 21.0531 224.391 21.3771 222.663 22.4643L223.248 23.3949ZM228.474 22.5343C230.51 22.8933 232.03 23.7667 233.087 25.1299L233.957 24.4558C232.706 22.8432 230.925 21.85 228.665 21.4516L228.474 22.5343ZM233.087 25.1299C234.142 26.4895 234.515 28.0411 234.198 29.8283L235.281 30.0192C235.649 27.941 235.21 26.072 233.957 24.4558L233.087 25.1299ZM234.198 29.8283C233.89 31.5694 233.003 32.9299 231.514 33.9367L232.13 34.8473C233.862 33.676 234.92 32.0576 235.281 30.0192L234.198 29.8283ZM231.521 33.9317C230.052 34.8907 228.323 35.2098 226.292 34.8517L226.1 35.9345C228.365 36.3338 230.386 35.9855 232.122 34.8522L231.521 33.9317Z" fill="#202027" mask="url(#path-8-outside-2_18933_834)"/>
<rect x="0.276153" y="0.394712" width="113.73" height="151.867" rx="20.105" transform="matrix(0.984808 0.173648 -0.174411 0.984673 306.465 -51.9115)" fill="#BCEC30"/>
<rect x="0.276153" y="0.394712" width="113.73" height="151.867" rx="20.105" transform="matrix(0.984808 0.173648 -0.174411 0.984673 306.465 -51.9115)" stroke="#202027" stroke-width="0.681525"/>
<mask id="path-11-outside-3_18933_834" maskUnits="userSpaceOnUse" x="324.384" y="4.90556" width="47.128" height="56.0059" fill="black">
<rect fill="white" x="324.384" y="4.90556" width="47.128" height="56.0059"/>
<path d="M342.761 38.4075C343.141 36.2601 343.926 34.5825 345.114 33.3747C346.31 32.1241 347.959 30.8203 350.059 29.4634C351.511 28.5234 352.605 27.7199 353.344 27.0528C354.089 26.3428 354.542 25.5369 354.702 24.6349C354.923 23.3894 354.561 22.3069 353.616 21.3874C352.722 20.4326 351.438 19.8074 349.762 19.512C348.044 19.2091 346.404 19.3406 344.842 19.9067C343.323 20.4804 342.004 21.4216 340.887 22.7304L332.199 15.8837C334.493 13.1878 337.399 11.2864 340.917 10.1794C344.435 9.07246 348.471 8.92041 353.024 9.72326C358.136 10.6246 362.048 12.4216 364.76 15.1144C367.523 17.7718 368.566 21.0118 367.889 24.8343C367.577 26.5952 366.999 28.1098 366.154 29.3781C365.317 30.6035 364.385 31.6129 363.359 32.4063C362.383 33.1643 361.126 34.0057 359.589 34.9306C357.908 35.9186 356.644 36.8029 355.797 37.5837C354.958 38.3215 354.435 39.2702 354.23 40.4298L342.761 38.4075ZM345.483 56.4265C343.378 56.0554 341.753 55.1044 340.606 53.5735C339.467 51.9998 339.065 50.268 339.4 48.3782C339.743 46.4455 340.69 44.9738 342.242 43.9631C343.837 42.9599 345.709 42.6477 347.856 43.0264C350.004 43.4051 351.655 44.3384 352.809 45.8263C353.963 47.3142 354.369 49.0245 354.026 50.9572C353.692 52.847 352.719 54.3364 351.109 55.4254C349.506 56.4715 347.631 56.8052 345.483 56.4265Z"/>
</mask>
<path d="M342.761 38.4075C343.141 36.2601 343.926 34.5825 345.114 33.3747C346.31 32.1241 347.959 30.8203 350.059 29.4634C351.511 28.5234 352.605 27.7199 353.344 27.0528C354.089 26.3428 354.542 25.5369 354.702 24.6349C354.923 23.3894 354.561 22.3069 353.616 21.3874C352.722 20.4326 351.438 19.8074 349.762 19.512C348.044 19.2091 346.404 19.3406 344.842 19.9067C343.323 20.4804 342.004 21.4216 340.887 22.7304L332.199 15.8837C334.493 13.1878 337.399 11.2864 340.917 10.1794C344.435 9.07246 348.471 8.92041 353.024 9.72326C358.136 10.6246 362.048 12.4216 364.76 15.1144C367.523 17.7718 368.566 21.0118 367.889 24.8343C367.577 26.5952 366.999 28.1098 366.154 29.3781C365.317 30.6035 364.385 31.6129 363.359 32.4063C362.383 33.1643 361.126 34.0057 359.589 34.9306C357.908 35.9186 356.644 36.8029 355.797 37.5837C354.958 38.3215 354.435 39.2702 354.23 40.4298L342.761 38.4075ZM345.483 56.4265C343.378 56.0554 341.753 55.1044 340.606 53.5735C339.467 51.9998 339.065 50.268 339.4 48.3782C339.743 46.4455 340.69 44.9738 342.242 43.9631C343.837 42.9599 345.709 42.6477 347.856 43.0264C350.004 43.4051 351.655 44.3384 352.809 45.8263C353.963 47.3142 354.369 49.0245 354.026 50.9572C353.692 52.847 352.719 54.3364 351.109 55.4254C349.506 56.4715 347.631 56.8052 345.483 56.4265Z" fill="white"/>
<path d="M342.761 38.4075L342.219 38.3121L342.124 38.8534L342.665 38.9489L342.761 38.4075ZM345.114 33.3747L345.506 33.7602L345.512 33.7545L345.114 33.3747ZM350.059 29.4634L350.358 29.9251L350.358 29.9247L350.059 29.4634ZM353.344 27.0528L353.712 27.4606L353.717 27.4558L353.723 27.4508L353.344 27.0528ZM353.616 21.3874L353.215 21.7632L353.223 21.7725L353.232 21.7814L353.616 21.3874ZM344.842 19.9067L344.655 19.3899L344.648 19.3925L344.842 19.9067ZM340.887 22.7304L340.546 23.1622L340.961 23.4894L341.305 23.0872L340.887 22.7304ZM332.199 15.8837L331.78 15.5277L331.41 15.9624L331.858 16.3155L332.199 15.8837ZM340.917 10.1794L341.082 10.7038V10.7038L340.917 10.1794ZM364.76 15.1144L364.373 15.5047L364.379 15.5107L364.76 15.1144ZM366.154 29.3781L366.608 29.688L366.612 29.6826L366.154 29.3781ZM363.359 32.4063L363.023 31.9715L363.022 31.9723L363.359 32.4063ZM359.589 34.9306L359.868 35.4045L359.873 35.4015L359.589 34.9306ZM355.797 37.5837L356.16 37.9966L356.17 37.9877L355.797 37.5837ZM354.23 40.4298L354.134 40.9712L354.676 41.0667L354.771 40.5253L354.23 40.4298ZM340.606 53.5735L340.161 53.896L340.166 53.9032L340.606 53.5735ZM342.242 43.9631L341.949 43.4977L341.942 43.5025L342.242 43.9631ZM352.809 45.8263L352.374 46.1633L352.374 46.1634L352.809 45.8263ZM351.109 55.4254L351.409 55.8857L351.417 55.8807L351.109 55.4254ZM343.302 38.503C343.669 36.4337 344.415 34.8686 345.506 33.7601L344.722 32.9893C343.436 34.2964 342.614 36.0864 342.219 38.3121L343.302 38.503ZM345.512 33.7545C346.668 32.5453 348.278 31.268 350.358 29.9251L349.761 29.0017C347.639 30.3725 345.953 31.7028 344.717 32.995L345.512 33.7545ZM350.358 29.9247C351.819 28.9785 352.942 28.1565 353.712 27.4606L352.975 26.6451C352.269 27.2832 351.202 28.0682 349.761 29.0021L350.358 29.9247ZM353.723 27.4508C354.543 26.6704 355.061 25.762 355.244 24.7304L354.161 24.5395C354.024 25.3117 353.636 26.0153 352.965 26.6548L353.723 27.4508ZM355.244 24.7304C355.497 23.2967 355.068 22.0334 354 20.9934L353.232 21.7814C354.053 22.5804 354.348 23.4821 354.161 24.5395L355.244 24.7304ZM354.018 21.0116C353.021 19.947 351.615 19.2805 349.858 18.9706L349.666 20.0534C351.26 20.3344 352.423 20.9181 353.215 21.7632L354.018 21.0116ZM349.858 18.9706C348.05 18.6518 346.312 18.7893 344.655 19.3899L345.029 20.4235C346.496 19.892 348.038 19.7663 349.666 20.0534L349.858 18.9706ZM344.648 19.3925C343.037 20.0009 341.643 20.9987 340.469 22.3736L341.305 23.0872C342.366 21.8446 343.609 20.9599 345.036 20.421L344.648 19.3925ZM341.227 22.2986L332.54 15.4519L331.858 16.3155L340.546 23.1622L341.227 22.2986ZM332.618 16.2397C334.841 13.6261 337.658 11.781 341.082 10.7038L340.752 9.65503C337.14 10.7917 334.144 12.7495 331.78 15.5277L332.618 16.2397ZM341.082 10.7038C344.497 9.62924 348.441 9.47332 352.928 10.2647L353.12 9.18187C348.502 8.36749 344.374 8.51568 340.752 9.65503L341.082 10.7038ZM352.928 10.2647C357.968 11.1533 361.764 12.9145 364.373 15.5047L365.148 14.7242C362.332 11.9287 358.304 10.0958 353.12 9.18187L352.928 10.2647ZM364.379 15.5107C367.008 18.0393 367.993 21.0941 367.348 24.7388L368.431 24.9297C369.139 20.9295 368.039 17.5044 365.142 14.7181L364.379 15.5107ZM367.348 24.7388C367.047 26.4378 366.493 27.8785 365.697 29.0737L366.612 29.6826C367.505 28.3411 368.108 26.7525 368.431 24.9297L367.348 24.7388ZM365.7 29.0683C364.891 30.2528 363.997 31.218 363.023 31.9715L363.695 32.8411C364.773 32.0078 365.743 30.9542 366.608 29.688L365.7 29.0683ZM363.022 31.9723C362.069 32.7124 360.832 33.5415 359.306 34.4596L359.873 35.4015C361.421 34.47 362.697 33.6162 363.696 32.8403L363.022 31.9723ZM359.311 34.4567C357.616 35.4529 356.313 36.3603 355.425 37.1796L356.17 37.9877C356.975 37.2456 358.201 36.3842 359.868 35.4044L359.311 34.4567ZM355.434 37.1709C354.496 37.9959 353.914 39.059 353.688 40.3343L354.771 40.5253C354.956 39.4814 355.42 38.6471 356.16 37.9965L355.434 37.1709ZM354.326 39.8884L342.857 37.8661L342.665 38.9489L354.134 40.9712L354.326 39.8884ZM345.579 55.8851C343.594 55.5352 342.099 54.6495 341.047 53.2439L340.166 53.9032C341.406 55.5592 343.162 56.5756 345.387 56.9679L345.579 55.8851ZM341.052 53.2511C339.999 51.7962 339.633 50.2148 339.942 48.4737L338.859 48.2827C338.498 50.3211 338.936 52.2033 340.161 53.896L341.052 53.2511ZM339.942 48.4737C340.259 46.6807 341.126 45.3459 342.542 44.4237L341.942 43.5025C340.254 44.6017 339.226 46.2103 338.859 48.2827L339.942 48.4737ZM342.535 44.4283C343.996 43.5092 345.725 43.2088 347.761 43.5678L347.952 42.485C345.693 42.0866 343.678 42.4106 341.949 43.4978L342.535 44.4283ZM347.761 43.5678C349.796 43.9268 351.317 44.8001 352.374 46.1633L353.244 45.4893C351.993 43.8767 350.212 42.8834 347.952 42.485L347.761 43.5678ZM352.374 46.1634C353.429 47.5229 353.801 49.0746 353.485 50.8617L354.568 51.0527C354.936 48.9744 354.497 47.1055 353.244 45.4893L352.374 46.1634ZM353.485 50.8617C353.177 52.6029 352.29 53.9633 350.801 54.9701L351.417 55.8807C353.149 54.7094 354.207 53.0911 354.568 51.0527L353.485 50.8617ZM350.808 54.9652C349.339 55.9241 347.61 56.2432 345.579 55.8851L345.387 56.9679C347.652 57.3672 349.673 57.0189 351.409 55.8857L350.808 54.9652Z" fill="#202027" mask="url(#path-11-outside-3_18933_834)"/>
<rect x="0.276153" y="0.394712" width="113.73" height="151.867" rx="20.105" transform="matrix(0.984808 0.173648 -0.174411 0.984673 425.752 -30.878)" fill="#BCEC30"/>
<rect x="0.276153" y="0.394712" width="113.73" height="151.867" rx="20.105" transform="matrix(0.984808 0.173648 -0.174411 0.984673 425.752 -30.878)" stroke="#202027" stroke-width="0.681525"/>
<rect x="0.276153" y="0.394712" width="113.73" height="151.867" rx="20.105" transform="matrix(0.984808 0.173648 -0.174411 0.984673 -79.031 41.7163)" fill="#BCEC30"/>
<rect x="0.276153" y="0.394712" width="113.73" height="151.867" rx="20.105" transform="matrix(0.984808 0.173648 -0.174411 0.984673 -79.031 41.7163)" stroke="#202027" stroke-width="0.681525"/>
<rect x="0.276153" y="0.394712" width="113.73" height="151.867" rx="20.105" transform="matrix(0.984808 0.173648 -0.174411 0.984673 40.2564 62.7498)" fill="#BCEC30"/>
<rect x="0.276153" y="0.394712" width="113.73" height="151.867" rx="20.105" transform="matrix(0.984808 0.173648 -0.174411 0.984673 40.2564 62.7498)" stroke="#202027" stroke-width="0.681525"/>
<mask id="path-16-outside-4_18933_834" maskUnits="userSpaceOnUse" x="58.1757" y="119.567" width="47.128" height="56.0059" fill="black">
<rect fill="white" x="58.1757" y="119.567" width="47.128" height="56.0059"/>
<path d="M76.5522 153.069C76.9326 150.921 77.717 149.244 78.9054 148.036C80.1015 146.785 81.7499 145.482 83.8507 144.125C85.3018 143.185 86.3965 142.381 87.1348 141.714C87.8807 141.004 88.3335 140.198 88.4933 139.296C88.7139 138.051 88.3519 136.968 87.4074 136.049C86.5134 135.094 85.2288 134.469 83.5536 134.173C81.8354 133.87 80.1952 134.002 78.6332 134.568C77.1141 135.142 75.7957 136.083 74.6779 137.392L65.9904 130.545C68.284 127.849 71.19 125.948 74.7083 124.841C78.2266 123.734 82.2624 123.582 86.8156 124.385C91.9273 125.286 95.8393 127.083 98.5517 129.776C101.315 132.433 102.358 135.673 101.681 139.496C101.369 141.257 100.79 142.771 99.9454 144.039C99.1082 145.265 98.1764 146.274 97.15 147.068C96.1741 147.826 94.9176 148.667 93.3806 149.592C91.6995 150.58 90.4355 151.464 89.5884 152.245C88.749 152.983 88.2266 153.932 88.0212 155.091L76.5522 153.069ZM79.2742 171.088C77.1694 170.717 75.5438 169.766 74.3975 168.235C73.2588 166.661 72.8568 164.929 73.1915 163.04C73.5338 161.107 74.4811 159.635 76.0333 158.624C77.6285 157.621 79.4999 157.309 81.6477 157.688C83.7954 158.066 85.4463 159 86.6002 160.488C87.7542 161.976 88.16 163.686 87.8176 165.619C87.4829 167.508 86.5104 168.998 84.9 170.087C83.2972 171.133 81.4219 171.467 79.2742 171.088Z"/>
</mask>
<path d="M76.5522 153.069C76.9326 150.921 77.717 149.244 78.9054 148.036C80.1015 146.785 81.7499 145.482 83.8507 144.125C85.3018 143.185 86.3965 142.381 87.1348 141.714C87.8807 141.004 88.3335 140.198 88.4933 139.296C88.7139 138.051 88.3519 136.968 87.4074 136.049C86.5134 135.094 85.2288 134.469 83.5536 134.173C81.8354 133.87 80.1952 134.002 78.6332 134.568C77.1141 135.142 75.7957 136.083 74.6779 137.392L65.9904 130.545C68.284 127.849 71.19 125.948 74.7083 124.841C78.2266 123.734 82.2624 123.582 86.8156 124.385C91.9273 125.286 95.8393 127.083 98.5517 129.776C101.315 132.433 102.358 135.673 101.681 139.496C101.369 141.257 100.79 142.771 99.9454 144.039C99.1082 145.265 98.1764 146.274 97.15 147.068C96.1741 147.826 94.9176 148.667 93.3806 149.592C91.6995 150.58 90.4355 151.464 89.5884 152.245C88.749 152.983 88.2266 153.932 88.0212 155.091L76.5522 153.069ZM79.2742 171.088C77.1694 170.717 75.5438 169.766 74.3975 168.235C73.2588 166.661 72.8568 164.929 73.1915 163.04C73.5338 161.107 74.4811 159.635 76.0333 158.624C77.6285 157.621 79.4999 157.309 81.6477 157.688C83.7954 158.066 85.4463 159 86.6002 160.488C87.7542 161.976 88.16 163.686 87.8176 165.619C87.4829 167.508 86.5104 168.998 84.9 170.087C83.2972 171.133 81.4219 171.467 79.2742 171.088Z" fill="white"/>
<path d="M76.5522 153.069L76.0107 152.973L75.9149 153.515L76.4563 153.61L76.5522 153.069ZM78.9054 148.036L79.2973 148.422L79.3028 148.416L78.9054 148.036ZM83.8507 144.125L84.1489 144.586L84.1495 144.586L83.8507 144.125ZM87.1348 141.714L87.5033 142.122L87.5086 142.117L87.5138 142.112L87.1348 141.714ZM87.4074 136.049L87.0058 136.425L87.0145 136.434L87.0236 136.443L87.4074 136.049ZM78.6332 134.568L78.4461 134.051L78.4392 134.054L78.6332 134.568ZM74.6779 137.392L74.3373 137.824L74.7525 138.151L75.096 137.749L74.6779 137.392ZM65.9904 130.545L65.5716 130.189L65.2017 130.624L65.6497 130.977L65.9904 130.545ZM74.7083 124.841L74.8731 125.365V125.365L74.7083 124.841ZM98.5517 129.776L98.164 130.166L98.1703 130.172L98.5517 129.776ZM99.9454 144.04L100.399 144.349L100.403 144.344L99.9454 144.04ZM97.15 147.068L96.8138 146.633L96.8128 146.634L97.15 147.068ZM93.3806 149.592L93.659 150.066L93.6639 150.063L93.3806 149.592ZM89.5884 152.245L89.9514 152.658L89.961 152.649L89.5884 152.245ZM88.0212 155.091L87.9253 155.633L88.4668 155.728L88.5627 155.187L88.0212 155.091ZM74.3975 168.235L73.9518 168.557L73.9572 168.565L74.3975 168.235ZM76.0333 158.624L75.7407 158.159L75.7334 158.164L76.0333 158.624ZM86.6002 160.488L86.1656 160.825L86.1656 160.825L86.6002 160.488ZM84.9 170.087L85.2004 170.547L85.2078 170.542L84.9 170.087ZM77.0937 153.164C77.4602 151.095 78.2066 149.53 79.2973 148.422L78.5136 147.651C77.2274 148.958 76.405 150.748 76.0107 152.973L77.0937 153.164ZM79.3028 148.416C80.4591 147.207 82.0697 145.929 84.1489 144.586L83.5525 143.663C81.4301 145.034 79.7438 146.364 78.5081 147.656L79.3028 148.416ZM84.1495 144.586C85.6101 143.64 86.733 142.818 87.5033 142.122L86.7663 141.306C86.06 141.945 84.9935 142.73 83.5519 143.663L84.1495 144.586ZM87.5138 142.112C88.3338 141.332 88.852 140.423 89.0348 139.392L87.9518 139.201C87.8151 139.973 87.4277 140.677 86.7558 141.316L87.5138 142.112ZM89.0348 139.392C89.2887 137.958 88.8595 136.695 87.7912 135.655L87.0236 136.443C87.8444 137.242 88.1391 138.143 87.9518 139.201L89.0348 139.392ZM87.809 135.673C86.8123 134.608 85.4066 133.942 83.6494 133.632L83.4577 134.715C85.051 134.996 86.2145 135.579 87.0058 136.425L87.809 135.673ZM83.6494 133.632C81.8414 133.313 80.1034 133.451 78.4461 134.051L78.8202 135.085C80.2871 134.553 81.8293 134.428 83.4577 134.715L83.6494 133.632ZM78.4392 134.054C76.8281 134.662 75.4341 135.66 74.2598 137.035L75.096 137.749C76.1572 136.506 77.4001 135.621 78.8272 135.082L78.4392 134.054ZM75.0185 136.96L66.331 130.113L65.6497 130.977L74.3373 137.824L75.0185 136.96ZM66.4091 130.901C68.6327 128.288 71.4492 126.442 74.8731 125.365L74.5436 124.316C70.9308 125.453 67.9353 127.411 65.5716 130.189L66.4091 130.901ZM74.8731 125.365C78.2884 124.291 82.2319 124.135 86.7197 124.926L86.9115 123.843C82.2929 123.029 78.1649 123.177 74.5436 124.316L74.8731 125.365ZM86.7197 124.926C91.7596 125.815 95.5551 127.576 98.1641 130.166L98.9393 129.386C96.1235 126.59 92.095 124.757 86.9115 123.843L86.7197 124.926ZM98.1703 130.172C100.799 132.701 101.785 135.755 101.139 139.4L102.222 139.591C102.931 135.591 101.83 132.166 98.9331 129.38L98.1703 130.172ZM101.139 139.4C100.838 141.099 100.284 142.54 99.4878 143.735L100.403 144.344C101.297 143.002 101.899 141.414 102.222 139.591L101.139 139.4ZM99.4914 143.73C98.6821 144.914 97.7886 145.879 96.8138 146.633L97.4861 147.502C98.5642 146.669 99.5344 145.616 100.399 144.349L99.4914 143.73ZM96.8128 146.634C95.8599 147.374 94.6232 148.203 93.0973 149.121L93.6639 150.063C95.2121 149.131 96.4883 148.278 97.4871 147.502L96.8128 146.634ZM93.1022 149.118C91.4071 150.114 90.1047 151.022 89.2158 151.841L89.961 152.649C90.7662 151.907 91.9919 151.046 93.659 150.066L93.1022 149.118ZM89.2255 151.832C88.287 152.657 87.7056 153.72 87.4797 154.996L88.5627 155.187C88.7475 154.143 89.211 153.308 89.9513 152.658L89.2255 151.832ZM88.1171 154.55L76.6481 152.528L76.4563 153.61L87.9253 155.633L88.1171 154.55ZM79.3701 170.546C77.3854 170.197 75.8904 169.311 74.8378 167.905L73.9572 168.565C75.1973 170.221 76.9534 171.237 79.1783 171.629L79.3701 170.546ZM74.8431 167.913C73.7904 166.458 73.4245 164.876 73.7329 163.135L72.65 162.944C72.289 164.983 72.7271 166.865 73.9519 168.557L74.8431 167.913ZM73.7329 163.135C74.0505 161.342 74.9169 160.007 76.3332 159.085L75.7334 158.164C74.0453 159.263 73.0171 160.872 72.65 162.944L73.7329 163.135ZM76.3259 159.09C77.7874 158.171 79.5158 157.87 81.5518 158.229L81.7436 157.146C79.484 156.748 77.4696 157.072 75.7408 158.159L76.3259 159.09ZM81.5518 158.229C83.5877 158.588 85.1083 159.461 86.1656 160.825L87.0349 160.151C85.7843 158.538 84.0031 157.545 81.7436 157.146L81.5518 158.229ZM86.1656 160.825C87.22 162.184 87.5927 163.736 87.2762 165.523L88.3591 165.714C88.7272 163.636 88.2883 161.767 87.0349 160.151L86.1656 160.825ZM87.2762 165.523C86.9678 167.264 86.0809 168.625 84.5921 169.632L85.2078 170.542C86.9398 169.371 87.9981 167.752 88.3591 165.714L87.2762 165.523ZM84.5996 169.627C83.1303 170.585 81.401 170.905 79.3701 170.546L79.1783 171.629C81.4429 172.029 83.464 171.68 85.2003 170.547L84.5996 169.627Z" fill="#202027" mask="url(#path-16-outside-4_18933_834)"/>
<rect x="0.276153" y="0.394712" width="113.73" height="151.867" rx="20.105" transform="matrix(0.984808 0.173648 -0.174411 0.984673 159.543 83.7833)" fill="#BCEC30"/>
<rect x="0.276153" y="0.394712" width="113.73" height="151.867" rx="20.105" transform="matrix(0.984808 0.173648 -0.174411 0.984673 159.543 83.7833)" stroke="#202027" stroke-width="0.681525"/>
<mask id="path-19-outside-5_18933_834" maskUnits="userSpaceOnUse" x="182.099" y="146.218" width="38.6647" height="45.9283" fill="black">
<rect fill="white" x="182.099" y="146.218" width="38.6647" height="45.9283"/>
<path d="M197.049 173.528C197.356 171.796 197.989 170.442 198.948 169.468C199.913 168.459 201.242 167.407 202.937 166.312C204.108 165.554 204.991 164.906 205.587 164.368C206.188 163.795 206.554 163.145 206.683 162.417C206.861 161.412 206.569 160.539 205.807 159.797C205.085 159.027 204.049 158.522 202.697 158.284C201.311 158.04 199.988 158.146 198.728 158.603C197.502 159.065 196.439 159.825 195.537 160.881L188.528 155.357C190.379 153.182 192.723 151.648 195.562 150.755C198.4 149.862 201.656 149.739 205.329 150.387C209.453 151.114 212.609 152.564 214.797 154.736C217.026 156.88 217.868 159.494 217.321 162.578C217.07 163.998 216.603 165.22 215.922 166.244C215.246 167.232 214.494 168.046 213.666 168.687C212.879 169.298 211.865 169.977 210.625 170.723C209.269 171.52 208.249 172.234 207.566 172.863C206.889 173.459 206.467 174.224 206.302 175.16L197.049 173.528ZM199.245 188.065C197.547 187.765 196.236 186.998 195.311 185.763C194.392 184.494 194.068 183.096 194.338 181.572C194.614 180.013 195.378 178.825 196.63 178.01C197.917 177.201 199.427 176.949 201.16 177.254C202.893 177.56 204.224 178.313 205.155 179.513C206.086 180.713 206.414 182.093 206.138 183.652C205.867 185.177 205.083 186.379 203.784 187.257C202.491 188.101 200.978 188.37 199.245 188.065Z"/>
</mask>
<path d="M197.049 173.528C197.356 171.796 197.989 170.442 198.948 169.468C199.913 168.459 201.242 167.407 202.937 166.312C204.108 165.554 204.991 164.906 205.587 164.368C206.188 163.795 206.554 163.145 206.683 162.417C206.861 161.412 206.569 160.539 205.807 159.797C205.085 159.027 204.049 158.522 202.697 158.284C201.311 158.04 199.988 158.146 198.728 158.603C197.502 159.065 196.439 159.825 195.537 160.881L188.528 155.357C190.379 153.182 192.723 151.648 195.562 150.755C198.4 149.862 201.656 149.739 205.329 150.387C209.453 151.114 212.609 152.564 214.797 154.736C217.026 156.88 217.868 159.494 217.321 162.578C217.07 163.998 216.603 165.22 215.922 166.244C215.246 167.232 214.494 168.046 213.666 168.687C212.879 169.298 211.865 169.977 210.625 170.723C209.269 171.52 208.249 172.234 207.566 172.863C206.889 173.459 206.467 174.224 206.302 175.16L197.049 173.528ZM199.245 188.065C197.547 187.765 196.236 186.998 195.311 185.763C194.392 184.494 194.068 183.096 194.338 181.572C194.614 180.013 195.378 178.825 196.63 178.01C197.917 177.201 199.427 176.949 201.16 177.254C202.893 177.56 204.224 178.313 205.155 179.513C206.086 180.713 206.414 182.093 206.138 183.652C205.867 185.177 205.083 186.379 203.784 187.257C202.491 188.101 200.978 188.37 199.245 188.065Z" fill="white"/>
<path d="M197.049 173.528L196.508 173.433L196.412 173.974L196.953 174.069L197.049 173.528ZM198.948 169.468L199.339 169.853L199.345 169.848L198.948 169.468ZM202.937 166.312L203.235 166.774L203.236 166.774L202.937 166.312ZM205.587 164.368L205.955 164.775L205.96 164.771L205.966 164.766L205.587 164.368ZM205.807 159.797L205.405 160.173L205.414 160.182L205.423 160.191L205.807 159.797ZM198.728 158.603L198.541 158.086L198.534 158.088L198.728 158.603ZM195.537 160.881L195.196 161.312L195.612 161.64L195.955 161.237L195.537 160.881ZM188.528 155.357L188.11 155.001L187.74 155.436L188.188 155.789L188.528 155.357ZM195.562 150.755L195.726 151.279V151.279L195.562 150.755ZM214.797 154.736L214.41 155.127L214.416 155.133L214.797 154.736ZM215.922 166.244L216.376 166.553L216.379 166.548L215.922 166.244ZM213.666 168.687L213.33 168.252L213.329 168.253L213.666 168.687ZM210.625 170.723L210.904 171.197L210.909 171.194L210.625 170.723ZM207.566 172.863L207.929 173.276L207.939 173.267L207.566 172.863ZM206.302 175.16L206.206 175.701L206.747 175.796L206.843 175.255L206.302 175.16ZM195.311 185.763L194.865 186.086L194.871 186.093L195.311 185.763ZM196.63 178.01L196.338 177.545L196.331 177.549L196.63 178.01ZM205.155 179.513L204.721 179.85V179.85L205.155 179.513ZM203.784 187.257L204.084 187.718L204.092 187.713L203.784 187.257ZM197.591 173.624C197.884 171.969 198.478 170.728 199.339 169.853L198.556 169.082C197.499 170.156 196.828 171.622 196.508 173.433L197.591 173.624ZM199.345 169.848C200.27 168.88 201.562 167.855 203.235 166.774L202.639 165.851C200.923 166.959 199.555 168.038 198.55 169.088L199.345 169.848ZM203.236 166.774C204.416 166.009 205.328 165.342 205.955 164.775L205.218 163.96C204.654 164.469 203.8 165.099 202.638 165.851L203.236 166.774ZM205.966 164.766C206.641 164.122 207.072 163.37 207.224 162.512L206.141 162.322C206.035 162.919 205.735 163.467 205.208 163.97L205.966 164.766ZM207.224 162.512C207.435 161.319 207.076 160.265 206.19 159.403L205.423 160.191C206.061 160.812 206.286 161.505 206.141 162.322L207.224 162.512ZM206.208 159.421C205.384 158.541 204.227 157.995 202.793 157.743L202.602 158.826C203.871 159.049 204.786 159.512 205.405 160.173L206.208 159.421ZM202.793 157.743C201.317 157.482 199.896 157.595 198.541 158.086L198.915 159.119C200.08 158.697 201.305 158.597 202.602 158.826L202.793 157.743ZM198.534 158.088C197.216 158.586 196.077 159.402 195.119 160.524L195.955 161.237C196.8 160.248 197.788 159.545 198.922 159.117L198.534 158.088ZM195.878 160.449L188.869 154.925L188.188 155.789L195.196 161.312L195.878 160.449ZM188.947 155.713C190.727 153.62 192.982 152.143 195.726 151.279L195.397 150.231C192.464 151.153 190.03 152.744 188.11 155.001L188.947 155.713ZM195.726 151.279C198.462 150.419 201.625 150.292 205.233 150.928L205.425 149.846C201.686 149.186 198.338 149.305 195.397 150.231L195.726 151.279ZM205.233 150.928C209.285 151.643 212.325 153.057 214.41 155.127L215.185 154.346C212.893 152.071 209.621 150.585 205.425 149.846L205.233 150.928ZM214.416 155.133C216.511 157.148 217.295 159.576 216.78 162.482L217.863 162.673C218.441 159.412 217.542 156.613 215.179 154.34L214.416 155.133ZM216.78 162.482C216.539 163.841 216.097 164.989 215.464 165.939L216.379 166.548C217.11 165.452 217.6 164.156 217.863 162.673L216.78 162.482ZM215.468 165.934C214.82 166.881 214.107 167.652 213.33 168.252L214.002 169.121C214.882 168.441 215.672 167.583 216.376 166.553L215.468 165.934ZM213.329 168.253C212.565 168.846 211.571 169.513 210.342 170.252L210.909 171.194C212.16 170.441 213.193 169.75 214.004 169.121L213.329 168.253ZM210.347 170.249C208.977 171.054 207.919 171.791 207.194 172.459L207.939 173.267C208.58 172.676 209.562 171.986 210.904 171.197L210.347 170.249ZM207.203 172.451C206.427 173.133 205.946 174.013 205.76 175.064L206.843 175.255C206.988 174.435 207.351 173.784 207.929 173.276L207.203 172.451ZM206.398 174.618L197.145 172.987L196.953 174.069L206.206 175.701L206.398 174.618ZM199.341 187.523C197.763 187.245 196.582 186.543 195.751 185.434L194.871 186.093C195.889 187.453 197.331 188.286 199.149 188.606L199.341 187.523ZM195.756 185.441C194.924 184.29 194.636 183.043 194.879 181.667L193.796 181.476C193.5 183.15 193.861 184.697 194.865 186.086L195.756 185.441ZM194.879 181.667C195.131 180.248 195.814 179.197 196.93 178.471L196.331 177.549C194.942 178.453 194.097 179.777 193.796 181.476L194.879 181.667ZM196.923 178.475C198.076 177.75 199.443 177.51 201.064 177.796L201.256 176.713C199.411 176.388 197.759 176.651 196.338 177.545L196.923 178.475ZM201.064 177.796C202.685 178.082 203.886 178.774 204.721 179.85L205.59 179.176C204.562 177.851 203.1 177.038 201.256 176.713L201.064 177.796ZM204.721 179.85C205.552 180.922 205.846 182.143 205.596 183.557L206.679 183.748C206.981 182.043 206.62 180.505 205.59 179.176L204.721 179.85ZM205.596 183.557C205.352 184.933 204.653 186.006 203.476 186.802L204.092 187.713C205.512 186.752 206.383 185.421 206.679 183.748L205.596 183.557ZM203.483 186.797C202.324 187.554 200.957 187.808 199.341 187.523L199.149 188.606C200.999 188.932 202.657 188.649 204.084 187.717L203.483 186.797Z" fill="#202027" mask="url(#path-19-outside-5_18933_834)"/>
<rect x="0.276153" y="0.394712" width="113.73" height="151.867" rx="20.105" transform="matrix(0.984808 0.173648 -0.174411 0.984673 278.83 104.817)" fill="#BCEC30"/>
<rect x="0.276153" y="0.394712" width="113.73" height="151.867" rx="20.105" transform="matrix(0.984808 0.173648 -0.174411 0.984673 278.83 104.817)" stroke="#202027" stroke-width="0.681525"/>
<mask id="path-22-outside-6_18933_834" maskUnits="userSpaceOnUse" x="296.749" y="161.634" width="47.128" height="56.0059" fill="black">
<rect fill="white" x="296.749" y="161.634" width="47.128" height="56.0059"/>
<path d="M315.126 195.136C315.506 192.988 316.29 191.311 317.479 190.103C318.675 188.852 320.323 187.549 322.424 186.192C323.875 185.252 324.97 184.448 325.708 183.781C326.454 183.071 326.907 182.265 327.067 181.363C327.287 180.118 326.925 179.035 325.981 178.116C325.087 177.161 323.802 176.536 322.127 176.24C320.409 175.937 318.769 176.069 317.207 176.635C315.688 177.209 314.369 178.15 313.251 179.459L304.564 172.612C306.858 169.916 309.764 168.015 313.282 166.908C316.8 165.801 320.836 165.649 325.389 166.452C330.501 167.353 334.413 169.15 337.125 171.843C339.888 174.5 340.931 177.74 340.254 181.563C339.942 183.323 339.364 184.838 338.519 186.106C337.682 187.332 336.75 188.341 335.723 189.135C334.748 189.893 333.491 190.734 331.954 191.659C330.273 192.647 329.009 193.531 328.162 194.312C327.322 195.05 326.8 195.998 326.595 197.158L315.126 195.136ZM317.848 213.155C315.743 212.784 314.117 211.833 312.971 210.302C311.832 208.728 311.43 206.996 311.765 205.106C312.107 203.174 313.055 201.702 314.607 200.691C316.202 199.688 318.073 199.376 320.221 199.755C322.369 200.133 324.02 201.067 325.174 202.555C326.328 204.042 326.733 205.753 326.391 207.685C326.056 209.575 325.084 211.065 323.473 212.154C321.871 213.2 319.995 213.533 317.848 213.155Z"/>
</mask>
<path d="M315.126 195.136C315.506 192.988 316.29 191.311 317.479 190.103C318.675 188.852 320.323 187.549 322.424 186.192C323.875 185.252 324.97 184.448 325.708 183.781C326.454 183.071 326.907 182.265 327.067 181.363C327.287 180.118 326.925 179.035 325.981 178.116C325.087 177.161 323.802 176.536 322.127 176.24C320.409 175.937 318.769 176.069 317.207 176.635C315.688 177.209 314.369 178.15 313.251 179.459L304.564 172.612C306.858 169.916 309.764 168.015 313.282 166.908C316.8 165.801 320.836 165.649 325.389 166.452C330.501 167.353 334.413 169.15 337.125 171.843C339.888 174.5 340.931 177.74 340.254 181.563C339.942 183.323 339.364 184.838 338.519 186.106C337.682 187.332 336.75 188.341 335.723 189.135C334.748 189.893 333.491 190.734 331.954 191.659C330.273 192.647 329.009 193.531 328.162 194.312C327.322 195.05 326.8 195.998 326.595 197.158L315.126 195.136ZM317.848 213.155C315.743 212.784 314.117 211.833 312.971 210.302C311.832 208.728 311.43 206.996 311.765 205.106C312.107 203.174 313.055 201.702 314.607 200.691C316.202 199.688 318.073 199.376 320.221 199.755C322.369 200.133 324.02 201.067 325.174 202.555C326.328 204.042 326.733 205.753 326.391 207.685C326.056 209.575 325.084 211.065 323.473 212.154C321.871 213.2 319.995 213.533 317.848 213.155Z" fill="white"/>
<path d="M315.126 195.136L314.584 195.04L314.488 195.582L315.03 195.677L315.126 195.136ZM317.479 190.103L317.871 190.488L317.876 190.483L317.479 190.103ZM322.424 186.192L322.722 186.653L322.723 186.653L322.424 186.192ZM325.708 183.781L326.077 184.189L326.082 184.184L326.087 184.179L325.708 183.781ZM325.981 178.116L325.579 178.492L325.588 178.501L325.597 178.51L325.981 178.116ZM317.207 176.635L317.02 176.118L317.013 176.121L317.207 176.635ZM313.251 179.459L312.911 179.89L313.326 180.218L313.669 179.815L313.251 179.459ZM304.564 172.612L304.145 172.256L303.775 172.691L304.223 173.044L304.564 172.612ZM313.282 166.908L313.447 167.432V167.432L313.282 166.908ZM337.125 171.843L336.737 172.233L336.744 172.239L337.125 171.843ZM338.519 186.106L338.973 186.416L338.977 186.411L338.519 186.106ZM335.723 189.135L335.387 188.7L335.386 188.701L335.723 189.135ZM331.954 191.659L332.233 192.133L332.237 192.13L331.954 191.659ZM328.162 194.312L328.525 194.725L328.534 194.716L328.162 194.312ZM326.595 197.158L326.499 197.699L327.04 197.795L327.136 197.254L326.595 197.158ZM312.971 210.302L312.525 210.624L312.531 210.631L312.971 210.302ZM314.607 200.691L314.314 200.226L314.307 200.231L314.607 200.691ZM325.174 202.555L324.739 202.892L324.739 202.892L325.174 202.555ZM323.473 212.154L323.774 212.614L323.781 212.609L323.473 212.154ZM315.667 195.231C316.034 193.162 316.78 191.597 317.871 190.488L317.087 189.718C315.801 191.025 314.978 192.815 314.584 195.04L315.667 195.231ZM317.876 190.483C319.033 189.274 320.643 187.996 322.722 186.653L322.126 185.73C320.004 187.101 318.317 188.431 317.082 189.723L317.876 190.483ZM322.723 186.653C324.184 185.707 325.307 184.885 326.077 184.189L325.34 183.373C324.633 184.011 323.567 184.797 322.125 185.73L322.723 186.653ZM326.087 184.179C326.907 183.399 327.426 182.49 327.608 181.459L326.525 181.268C326.389 182.04 326.001 182.744 325.329 183.383L326.087 184.179ZM327.608 181.459C327.862 180.025 327.433 178.762 326.365 177.722L325.597 178.51C326.418 179.309 326.713 180.21 326.525 181.268L327.608 181.459ZM326.382 177.74C325.386 176.675 323.98 176.009 322.223 175.699L322.031 176.782C323.624 177.063 324.788 177.646 325.579 178.492L326.382 177.74ZM322.223 175.699C320.415 175.38 318.677 175.518 317.02 176.118L317.394 177.152C318.861 176.62 320.403 176.495 322.031 176.782L322.223 175.699ZM317.013 176.121C315.402 176.729 314.008 177.727 312.833 179.102L313.669 179.815C314.731 178.573 315.974 177.688 317.401 177.149L317.013 176.121ZM313.592 179.027L304.904 172.18L304.223 173.044L312.911 179.89L313.592 179.027ZM304.983 172.968C307.206 170.354 310.023 168.509 313.447 167.432L313.117 166.383C309.504 167.52 306.509 169.478 304.145 172.256L304.983 172.968ZM313.447 167.432C316.862 166.358 320.805 166.202 325.293 166.993L325.485 165.91C320.866 165.096 316.738 165.244 313.117 166.383L313.447 167.432ZM325.293 166.993C330.333 167.882 334.129 169.643 336.738 172.233L337.513 171.452C334.697 168.657 330.668 166.824 325.485 165.91L325.293 166.993ZM336.744 172.239C339.373 174.768 340.358 177.822 339.713 181.467L340.795 181.658C341.504 177.658 340.403 174.233 337.507 171.446L336.744 172.239ZM339.713 181.467C339.412 183.166 338.857 184.607 338.061 185.802L338.977 186.411C339.87 185.069 340.473 183.481 340.795 181.658L339.713 181.467ZM338.065 185.797C337.256 186.981 336.362 187.946 335.387 188.7L336.06 189.569C337.138 188.736 338.108 187.682 338.973 186.416L338.065 185.797ZM335.386 188.701C334.433 189.441 333.197 190.27 331.671 191.188L332.237 192.13C333.786 191.198 335.062 190.344 336.061 189.569L335.386 188.701ZM331.676 191.185C329.981 192.181 328.678 193.089 327.789 193.908L328.534 194.716C329.34 193.974 330.565 193.112 332.233 192.133L331.676 191.185ZM327.799 193.899C326.86 194.724 326.279 195.787 326.053 197.063L327.136 197.254C327.321 196.21 327.785 195.375 328.525 194.725L327.799 193.899ZM326.691 196.617L315.222 194.594L315.03 195.677L326.499 197.699L326.691 196.617ZM317.944 212.613C315.959 212.263 314.464 211.378 313.411 209.972L312.531 210.631C313.771 212.288 315.527 213.304 317.752 213.696L317.944 212.613ZM313.417 209.979C312.364 208.524 311.998 206.943 312.306 205.202L311.223 205.011C310.862 207.049 311.301 208.932 312.525 210.624L313.417 209.979ZM312.306 205.202C312.624 203.409 313.49 202.074 314.907 201.152L314.307 200.231C312.619 201.33 311.591 202.939 311.223 205.011L312.306 205.202ZM314.899 201.157C316.361 200.238 318.089 199.937 320.125 200.296L320.317 199.213C318.058 198.815 316.043 199.139 314.314 200.226L314.899 201.157ZM320.125 200.296C322.161 200.655 323.682 201.528 324.739 202.892L325.608 202.218C324.358 200.605 322.577 199.612 320.317 199.213L320.125 200.296ZM324.739 202.892C325.793 204.251 326.166 205.803 325.85 207.59L326.933 207.781C327.301 205.703 326.862 203.834 325.608 202.218L324.739 202.892ZM325.85 207.59C325.541 209.331 324.654 210.692 323.166 211.698L323.781 212.609C325.513 211.438 326.572 209.819 326.933 207.781L325.85 207.59ZM323.173 211.693C321.704 212.652 319.974 212.971 317.944 212.613L317.752 213.696C320.016 214.095 322.038 213.747 323.774 212.614L323.173 211.693Z" fill="#202027" mask="url(#path-22-outside-6_18933_834)"/>
<rect x="0.276153" y="0.394712" width="113.73" height="151.867" rx="20.105" transform="matrix(0.984808 0.173648 -0.174411 0.984673 398.117 125.85)" fill="#BCEC30"/>
<rect x="0.276153" y="0.394712" width="113.73" height="151.867" rx="20.105" transform="matrix(0.984808 0.173648 -0.174411 0.984673 398.117 125.85)" stroke="#202027" stroke-width="0.681525"/>
<rect x="0.276153" y="0.394712" width="113.73" height="151.867" rx="20.105" transform="matrix(0.984808 0.173648 -0.174411 0.984673 -106.666 198.444)" fill="#BCEC30"/>
<rect x="0.276153" y="0.394712" width="113.73" height="151.867" rx="20.105" transform="matrix(0.984808 0.173648 -0.174411 0.984673 -106.666 198.444)" stroke="#202027" stroke-width="0.681525"/>
<rect x="0.276153" y="0.394712" width="113.73" height="151.867" rx="20.105" transform="matrix(0.984808 0.173648 -0.174411 0.984673 12.6206 219.478)" fill="#BCEC30"/>
<rect x="0.276153" y="0.394712" width="113.73" height="151.867" rx="20.105" transform="matrix(0.984808 0.173648 -0.174411 0.984673 12.6206 219.478)" stroke="#202027" stroke-width="0.681525"/>
<mask id="path-27-outside-7_18933_834" maskUnits="userSpaceOnUse" x="30.54" y="276.295" width="47.128" height="56.0059" fill="black">
<rect fill="white" x="30.54" y="276.295" width="47.128" height="56.0059"/>
<path d="M48.9165 309.797C49.2968 307.649 50.0813 305.972 51.2697 304.764C52.4657 303.513 54.1142 302.21 56.215 300.853C57.6661 299.913 58.7608 299.109 59.4991 298.442C60.245 297.732 60.6978 296.926 60.8576 296.024C61.0782 294.779 60.7162 293.696 59.7717 292.777C58.8777 291.822 57.5931 291.197 55.9178 290.901C54.1996 290.598 52.5595 290.73 50.9974 291.296C49.4783 291.87 48.1599 292.811 47.0422 294.12L38.3546 287.273C40.6483 284.577 43.5543 282.676 47.0726 281.569C50.5909 280.462 54.6267 280.31 59.1799 281.113C64.2915 282.014 68.2035 283.811 70.9159 286.504C73.6789 289.161 74.7218 292.401 74.0448 296.224C73.7329 297.984 73.1545 299.499 72.3097 300.767C71.4725 301.993 70.5407 303.002 69.5142 303.796C68.5383 304.554 67.2819 305.395 65.7449 306.32C64.0638 307.308 62.7997 308.192 61.9527 308.973C61.1133 309.711 60.5908 310.659 60.3854 311.819L48.9165 309.797ZM51.6384 327.816C49.5336 327.445 47.9081 326.494 46.7617 324.963C45.623 323.389 45.221 321.657 45.5557 319.768C45.8981 317.835 46.8453 316.363 48.3976 315.352C49.9927 314.349 51.8642 314.037 54.0119 314.416C56.1597 314.794 57.8105 315.728 58.9645 317.216C60.1184 318.703 60.5242 320.414 60.1819 322.346C59.8472 324.236 58.8746 325.726 57.2642 326.815C55.6614 327.861 53.7862 328.194 51.6384 327.816Z"/>
</mask>
<path d="M48.9165 309.797C49.2968 307.649 50.0813 305.972 51.2697 304.764C52.4657 303.513 54.1142 302.21 56.215 300.853C57.6661 299.913 58.7608 299.109 59.4991 298.442C60.245 297.732 60.6978 296.926 60.8576 296.024C61.0782 294.779 60.7162 293.696 59.7717 292.777C58.8777 291.822 57.5931 291.197 55.9178 290.901C54.1996 290.598 52.5595 290.73 50.9974 291.296C49.4783 291.87 48.1599 292.811 47.0422 294.12L38.3546 287.273C40.6483 284.577 43.5543 282.676 47.0726 281.569C50.5909 280.462 54.6267 280.31 59.1799 281.113C64.2915 282.014 68.2035 283.811 70.9159 286.504C73.6789 289.161 74.7218 292.401 74.0448 296.224C73.7329 297.984 73.1545 299.499 72.3097 300.767C71.4725 301.993 70.5407 303.002 69.5142 303.796C68.5383 304.554 67.2819 305.395 65.7449 306.32C64.0638 307.308 62.7997 308.192 61.9527 308.973C61.1133 309.711 60.5908 310.659 60.3854 311.819L48.9165 309.797ZM51.6384 327.816C49.5336 327.445 47.9081 326.494 46.7617 324.963C45.623 323.389 45.221 321.657 45.5557 319.768C45.8981 317.835 46.8453 316.363 48.3976 315.352C49.9927 314.349 51.8642 314.037 54.0119 314.416C56.1597 314.794 57.8105 315.728 58.9645 317.216C60.1184 318.703 60.5242 320.414 60.1819 322.346C59.8472 324.236 58.8746 325.726 57.2642 326.815C55.6614 327.861 53.7862 328.194 51.6384 327.816Z" fill="white"/>
<path d="M48.9165 309.797L48.375 309.701L48.2791 310.243L48.8206 310.338L48.9165 309.797ZM51.2697 304.764L51.6616 305.149L51.667 305.144L51.2697 304.764ZM56.215 300.853L56.5131 301.314L56.5137 301.314L56.215 300.853ZM59.4991 298.442L59.8676 298.85L59.8729 298.845L59.8781 298.84L59.4991 298.442ZM59.7717 292.777L59.3701 293.153L59.3788 293.162L59.3879 293.171L59.7717 292.777ZM50.9974 291.296L50.8103 290.779L50.8035 290.782L50.9974 291.296ZM47.0422 294.12L46.7015 294.552L47.1167 294.879L47.4602 294.476L47.0422 294.12ZM38.3546 287.273L37.9359 286.917L37.566 287.352L38.014 287.705L38.3546 287.273ZM47.0726 281.569L47.2373 282.093V282.093L47.0726 281.569ZM70.9159 286.504L70.5283 286.894L70.5345 286.9L70.9159 286.504ZM72.3097 300.767L72.7637 301.077L72.7673 301.072L72.3097 300.767ZM69.5142 303.796L69.1781 303.361L69.177 303.362L69.5142 303.796ZM65.7449 306.32L66.0233 306.794L66.0282 306.791L65.7449 306.32ZM61.9527 308.973L62.3157 309.386L62.3253 309.377L61.9527 308.973ZM60.3854 311.819L60.2896 312.36L60.831 312.456L60.9269 311.915L60.3854 311.819ZM46.7617 324.963L46.3161 325.285L46.3215 325.292L46.7617 324.963ZM48.3976 315.352L48.105 314.887L48.0977 314.892L48.3976 315.352ZM58.9645 317.216L58.5298 317.553L58.5298 317.553L58.9645 317.216ZM57.2642 326.815L57.5646 327.275L57.5721 327.27L57.2642 326.815ZM49.4579 309.892C49.8245 307.823 50.5708 306.258 51.6616 305.149L50.8778 304.379C49.5917 305.686 48.7692 307.476 48.375 309.701L49.4579 309.892ZM51.667 305.144C52.8234 303.935 54.434 302.657 56.5131 301.314L55.9168 300.391C53.7944 301.762 52.1081 303.092 50.8724 304.384L51.667 305.144ZM56.5137 301.314C57.9743 300.368 59.0973 299.546 59.8676 298.85L59.1305 298.034C58.4242 298.673 57.3578 299.458 55.9162 300.391L56.5137 301.314ZM59.8781 298.84C60.698 298.06 61.2163 297.151 61.399 296.12L60.3161 295.929C60.1793 296.701 59.7919 297.405 59.12 298.044L59.8781 298.84ZM61.399 296.12C61.653 294.686 61.2238 293.423 60.1554 292.383L59.3879 293.171C60.2086 293.97 60.5034 294.871 60.3161 295.929L61.399 296.12ZM60.1733 292.401C59.1766 291.336 57.7709 290.67 56.0137 290.36L55.8219 291.443C57.4152 291.724 58.5788 292.307 59.3701 293.153L60.1733 292.401ZM56.0137 290.36C54.2057 290.041 52.4676 290.179 50.8104 290.779L51.1845 291.813C52.6514 291.281 54.1936 291.156 55.8219 291.443L56.0137 290.36ZM50.8035 290.782C49.1924 291.39 47.7983 292.388 46.6241 293.763L47.4602 294.476C48.5215 293.234 49.7643 292.349 51.1914 291.81L50.8035 290.782ZM47.3828 293.688L38.6952 286.841L38.014 287.705L46.7015 294.552L47.3828 293.688ZM38.7734 287.629C40.997 285.015 43.8135 283.17 47.2373 282.093L46.9079 281.044C43.2951 282.181 40.2996 284.139 37.9359 286.917L38.7734 287.629ZM47.2373 282.093C50.6526 281.019 54.5961 280.863 59.084 281.654L59.2758 280.571C54.6572 279.757 50.5291 279.905 46.9079 281.044L47.2373 282.093ZM59.084 281.654C64.1238 282.543 67.9193 284.304 70.5283 286.894L71.3035 286.113C68.4877 283.318 64.4592 281.485 59.2758 280.571L59.084 281.654ZM70.5345 286.9C73.1635 289.429 74.1489 292.483 73.5033 296.128L74.5862 296.319C75.2948 292.319 74.1942 288.894 71.2973 286.107L70.5345 286.9ZM73.5033 296.128C73.2024 297.827 72.6481 299.268 71.8521 300.463L72.7673 301.072C73.6609 299.73 74.2634 298.142 74.5862 296.319L73.5033 296.128ZM71.8557 300.458C71.0464 301.642 70.1529 302.607 69.1781 303.361L69.8504 304.23C70.9284 303.397 71.8986 302.343 72.7637 301.077L71.8557 300.458ZM69.177 303.362C68.2241 304.102 66.9874 304.931 65.4615 305.849L66.0282 306.791C67.5763 305.859 68.8525 305.005 69.8514 304.23L69.177 303.362ZM65.4664 305.846C63.7713 306.842 62.469 307.75 61.5801 308.569L62.3253 309.377C63.1305 308.635 64.3562 307.773 66.0233 306.794L65.4664 305.846ZM61.5898 308.56C60.6512 309.385 60.0699 310.448 59.844 311.724L60.9269 311.915C61.1118 310.871 61.5753 310.036 62.3156 309.386L61.5898 308.56ZM60.4813 311.278L49.0124 309.255L48.8206 310.338L60.2896 312.36L60.4813 311.278ZM51.7343 327.274C49.7497 326.924 48.2546 326.039 47.202 324.633L46.3215 325.292C47.5615 326.949 49.3176 327.965 51.5425 328.357L51.7343 327.274ZM47.2074 324.64C46.1546 323.185 45.7888 321.604 46.0972 319.863L45.0143 319.672C44.6532 321.71 45.0914 323.593 46.3161 325.285L47.2074 324.64ZM46.0972 319.863C46.4148 318.07 47.2811 316.735 48.6974 315.813L48.0977 314.892C46.4095 315.991 45.3814 317.6 45.0143 319.672L46.0972 319.863ZM48.6901 315.818C50.1516 314.899 51.8801 314.598 53.916 314.957L54.1078 313.874C51.8483 313.476 49.8338 313.8 48.105 314.887L48.6901 315.818ZM53.916 314.957C55.952 315.316 57.4726 316.189 58.5298 317.553L59.3991 316.879C58.1485 315.266 56.3674 314.273 54.1078 313.874L53.916 314.957ZM58.5298 317.553C59.5842 318.912 59.957 320.464 59.6404 322.251L60.7234 322.442C61.0915 320.364 60.6526 318.495 59.3991 316.879L58.5298 317.553ZM59.6404 322.251C59.332 323.992 58.4451 325.353 56.9564 326.359L57.5721 327.27C59.3041 326.099 60.3623 324.48 60.7234 322.442L59.6404 322.251ZM56.9639 326.354C55.4946 327.313 53.7652 327.633 51.7343 327.274L51.5425 328.357C53.8071 328.756 55.8283 328.408 57.5646 327.275L56.9639 326.354Z" fill="#202027" mask="url(#path-27-outside-7_18933_834)"/>
<rect x="0.276153" y="0.394712" width="113.73" height="151.867" rx="20.105" transform="matrix(0.984808 0.173648 -0.174411 0.984673 131.908 240.511)" fill="#BCEC30"/>
<rect x="0.276153" y="0.394712" width="113.73" height="151.867" rx="20.105" transform="matrix(0.984808 0.173648 -0.174411 0.984673 131.908 240.511)" stroke="#202027" stroke-width="0.681525"/>
<mask id="path-30-outside-8_18933_834" maskUnits="userSpaceOnUse" x="149.827" y="297.328" width="47.128" height="56.0059" fill="black">
<rect fill="white" x="149.827" y="297.328" width="47.128" height="56.0059"/>
<path d="M168.203 330.83C168.584 328.683 169.368 327.005 170.557 325.798C171.753 324.547 173.401 323.243 175.502 321.886C176.953 320.946 178.048 320.143 178.786 319.476C179.532 318.766 179.985 317.96 180.144 317.058C180.365 315.812 180.003 314.73 179.059 313.81C178.165 312.855 176.88 312.23 175.205 311.935C173.486 311.632 171.846 311.763 170.284 312.33C168.765 312.903 167.447 313.844 166.329 315.153L157.641 308.307C159.935 305.611 162.841 303.709 166.359 302.602C169.878 301.495 173.914 301.343 178.467 302.146C183.578 303.047 187.49 304.844 190.203 307.537C192.966 310.195 194.009 313.435 193.332 317.257C193.02 319.018 192.441 320.533 191.597 321.801C190.759 323.026 189.828 324.036 188.801 324.829C187.825 325.587 186.569 326.429 185.032 327.353C183.351 328.341 182.087 329.226 181.24 330.007C180.4 330.744 179.878 331.693 179.672 332.853L168.203 330.83ZM170.925 348.849C168.821 348.478 167.195 347.527 166.049 345.996C164.91 344.423 164.508 342.691 164.843 340.801C165.185 338.868 166.132 337.397 167.684 336.386C169.28 335.383 171.151 335.071 173.299 335.449C175.447 335.828 177.097 336.761 178.251 338.249C179.405 339.737 179.811 341.447 179.469 343.38C179.134 345.27 178.161 346.759 176.551 347.848C174.948 348.894 173.073 349.228 170.925 348.849Z"/>
</mask>
<path d="M168.203 330.83C168.584 328.683 169.368 327.005 170.557 325.798C171.753 324.547 173.401 323.243 175.502 321.886C176.953 320.946 178.048 320.143 178.786 319.476C179.532 318.766 179.985 317.96 180.144 317.058C180.365 315.812 180.003 314.73 179.059 313.81C178.165 312.855 176.88 312.23 175.205 311.935C173.486 311.632 171.846 311.763 170.284 312.33C168.765 312.903 167.447 313.844 166.329 315.153L157.641 308.307C159.935 305.611 162.841 303.709 166.359 302.602C169.878 301.495 173.914 301.343 178.467 302.146C183.578 303.047 187.49 304.844 190.203 307.537C192.966 310.195 194.009 313.435 193.332 317.257C193.02 319.018 192.441 320.533 191.597 321.801C190.759 323.026 189.828 324.036 188.801 324.829C187.825 325.587 186.569 326.429 185.032 327.353C183.351 328.341 182.087 329.226 181.24 330.007C180.4 330.744 179.878 331.693 179.672 332.853L168.203 330.83ZM170.925 348.849C168.821 348.478 167.195 347.527 166.049 345.996C164.91 344.423 164.508 342.691 164.843 340.801C165.185 338.868 166.132 337.397 167.684 336.386C169.28 335.383 171.151 335.071 173.299 335.449C175.447 335.828 177.097 336.761 178.251 338.249C179.405 339.737 179.811 341.447 179.469 343.38C179.134 345.27 178.161 346.759 176.551 347.848C174.948 348.894 173.073 349.228 170.925 348.849Z" fill="white"/>
<path d="M168.203 330.83L167.662 330.735L167.566 331.276L168.107 331.372L168.203 330.83ZM170.557 325.798L170.948 326.183L170.954 326.177L170.557 325.798ZM175.502 321.886L175.8 322.348L175.801 322.348L175.502 321.886ZM178.786 319.476L179.154 319.883L179.16 319.879L179.165 319.874L178.786 319.476ZM179.059 313.81L178.657 314.186L178.666 314.195L178.675 314.204L179.059 313.81ZM170.284 312.33L170.097 311.813L170.09 311.815L170.284 312.33ZM166.329 315.153L165.988 315.585L166.404 315.912L166.747 315.51L166.329 315.153ZM157.641 308.307L157.223 307.951L156.853 308.385L157.301 308.738L157.641 308.307ZM166.359 302.602L166.524 303.127V303.127L166.359 302.602ZM190.203 307.537L189.815 307.928L189.821 307.934L190.203 307.537ZM191.597 321.801L192.051 322.111L192.054 322.105L191.597 321.801ZM188.801 324.829L188.465 324.394L188.464 324.395L188.801 324.829ZM185.032 327.353L185.31 327.827L185.315 327.824L185.032 327.353ZM181.24 330.007L181.603 330.419L181.612 330.411L181.24 330.007ZM179.672 332.853L179.576 333.394L180.118 333.49L180.214 332.948L179.672 332.853ZM166.049 345.996L165.603 346.319L165.608 346.326L166.049 345.996ZM167.684 336.386L167.392 335.921L167.385 335.925L167.684 336.386ZM178.251 338.249L177.817 338.586L177.817 338.586L178.251 338.249ZM176.551 347.848L176.852 348.309L176.859 348.304L176.551 347.848ZM168.745 330.926C169.111 328.857 169.858 327.291 170.948 326.183L170.165 325.412C168.879 326.719 168.056 328.509 167.662 330.735L168.745 330.926ZM170.954 326.177C172.11 324.968 173.721 323.691 175.8 322.348L175.204 321.425C173.081 322.795 171.395 324.126 170.159 325.418L170.954 326.177ZM175.801 322.348C177.261 321.401 178.384 320.579 179.154 319.883L178.417 319.068C177.711 319.706 176.645 320.491 175.203 321.425L175.801 322.348ZM179.165 319.874C179.985 319.093 180.503 318.185 180.686 317.153L179.603 316.962C179.466 317.735 179.079 318.438 178.407 319.078L179.165 319.874ZM180.686 317.153C180.94 315.72 180.511 314.456 179.442 313.416L178.675 314.204C179.496 315.003 179.79 315.905 179.603 316.962L180.686 317.153ZM179.46 313.434C178.463 312.37 177.058 311.703 175.301 311.393L175.109 312.476C176.702 312.757 177.866 313.341 178.657 314.186L179.46 313.434ZM175.301 311.393C173.493 311.075 171.754 311.212 170.097 311.813L170.471 312.846C171.938 312.315 173.48 312.189 175.109 312.476L175.301 311.393ZM170.09 311.815C168.479 312.424 167.085 313.422 165.911 314.796L166.747 315.51C167.808 314.267 169.051 313.383 170.478 312.844L170.09 311.815ZM166.67 314.721L157.982 307.875L157.301 308.738L165.988 315.585L166.67 314.721ZM158.06 308.663C160.284 306.049 163.1 304.204 166.524 303.127L166.195 302.078C162.582 303.215 159.586 305.172 157.223 307.951L158.06 308.663ZM166.524 303.127C169.94 302.052 173.883 301.896 178.371 302.688L178.563 301.605C173.944 300.79 169.816 300.939 166.195 302.078L166.524 303.127ZM178.371 302.688C183.411 303.576 187.206 305.337 189.815 307.928L190.59 307.147C187.775 304.352 183.746 302.519 178.563 301.605L178.371 302.688ZM189.821 307.934C192.45 310.462 193.436 313.517 192.79 317.162L193.873 317.353C194.582 313.352 193.481 309.927 190.584 307.141L189.821 307.934ZM192.79 317.162C192.489 318.861 191.935 320.301 191.139 321.497L192.054 322.105C192.948 320.764 193.55 319.175 193.873 317.353L192.79 317.162ZM191.143 321.491C190.333 322.676 189.44 323.641 188.465 324.394L189.137 325.264C190.215 324.431 191.185 323.377 192.051 322.111L191.143 321.491ZM188.464 324.395C187.511 325.135 186.274 325.964 184.748 326.882L185.315 327.824C186.863 326.893 188.139 326.039 189.138 325.263L188.464 324.395ZM184.753 326.88C183.058 327.876 181.756 328.783 180.867 329.602L181.612 330.411C182.417 329.668 183.643 328.807 185.31 327.827L184.753 326.88ZM180.877 329.594C179.938 330.419 179.357 331.482 179.131 332.757L180.214 332.948C180.399 331.904 180.862 331.07 181.602 330.419L180.877 329.594ZM179.768 332.311L168.299 330.289L168.107 331.372L179.576 333.394L179.768 332.311ZM171.021 348.308C169.037 347.958 167.541 347.072 166.489 345.667L165.608 346.326C166.848 347.982 168.604 348.998 170.829 349.391L171.021 348.308ZM166.494 345.674C165.441 344.219 165.076 342.638 165.384 340.897L164.301 340.706C163.94 342.744 164.378 344.626 165.603 346.319L166.494 345.674ZM165.384 340.897C165.702 339.104 166.568 337.769 167.984 336.847L167.385 335.925C165.696 337.025 164.668 338.633 164.301 340.706L165.384 340.897ZM167.977 336.851C169.438 335.932 171.167 335.632 173.203 335.991L173.395 334.908C171.135 334.509 169.121 334.833 167.392 335.921L167.977 336.851ZM173.203 335.991C175.239 336.35 176.759 337.223 177.817 338.586L178.686 337.912C177.435 336.3 175.654 335.306 173.395 334.908L173.203 335.991ZM177.817 338.586C178.871 339.946 179.244 341.497 178.927 343.285L180.01 343.476C180.378 341.397 179.939 339.528 178.686 337.912L177.817 338.586ZM178.927 343.285C178.619 345.026 177.732 346.386 176.243 347.393L176.859 348.304C178.591 347.132 179.649 345.514 180.01 343.476L178.927 343.285ZM176.251 347.388C174.781 348.347 173.052 348.666 171.021 348.308L170.829 349.391C173.094 349.79 175.115 349.442 176.851 348.309L176.251 347.388Z" fill="#202027" mask="url(#path-30-outside-8_18933_834)"/>
<rect x="0.276153" y="0.394712" width="113.73" height="151.867" rx="20.105" transform="matrix(0.984808 0.173648 -0.174411 0.984673 251.194 261.545)" fill="#BCEC30"/>
<rect x="0.276153" y="0.394712" width="113.73" height="151.867" rx="20.105" transform="matrix(0.984808 0.173648 -0.174411 0.984673 251.194 261.545)" stroke="#202027" stroke-width="0.681525"/>
<mask id="path-33-outside-9_18933_834" maskUnits="userSpaceOnUse" x="273.75" y="323.98" width="38.6647" height="45.9283" fill="black">
<rect fill="white" x="273.75" y="323.98" width="38.6647" height="45.9283"/>
<path d="M288.7 351.29C289.007 349.557 289.64 348.204 290.599 347.229C291.564 346.22 292.894 345.168 294.589 344.074C295.759 343.315 296.642 342.667 297.238 342.129C297.84 341.556 298.205 340.906 298.334 340.178C298.512 339.174 298.22 338.3 297.458 337.559C296.737 336.788 295.7 336.284 294.349 336.046C292.963 335.801 291.639 335.907 290.379 336.364C289.154 336.827 288.09 337.586 287.188 338.642L280.18 333.118C282.03 330.944 284.375 329.41 287.213 328.516C290.051 327.623 293.307 327.501 296.981 328.148C301.104 328.876 304.26 330.325 306.449 332.498C308.678 334.642 309.519 337.256 308.973 340.339C308.721 341.76 308.255 342.982 307.573 344.005C306.898 344.994 306.146 345.808 305.318 346.448C304.53 347.06 303.517 347.738 302.277 348.484C300.921 349.282 299.901 349.995 299.217 350.625C298.54 351.22 298.119 351.985 297.953 352.921L288.7 351.29ZM290.896 365.826C289.198 365.527 287.887 364.76 286.962 363.525C286.043 362.255 285.719 360.858 285.989 359.333C286.265 357.774 287.03 356.587 288.282 355.771C289.569 354.962 291.079 354.71 292.811 355.016C294.544 355.321 295.876 356.074 296.807 357.275C297.738 358.475 298.065 359.855 297.789 361.414C297.519 362.939 296.734 364.14 295.435 365.019C294.142 365.863 292.629 366.132 290.896 365.826Z"/>
</mask>
<path d="M288.7 351.29C289.007 349.557 289.64 348.204 290.599 347.229C291.564 346.22 292.894 345.168 294.589 344.074C295.759 343.315 296.642 342.667 297.238 342.129C297.84 341.556 298.205 340.906 298.334 340.178C298.512 339.174 298.22 338.3 297.458 337.559C296.737 336.788 295.7 336.284 294.349 336.046C292.963 335.801 291.639 335.907 290.379 336.364C289.154 336.827 288.09 337.586 287.188 338.642L280.18 333.118C282.03 330.944 284.375 329.41 287.213 328.516C290.051 327.623 293.307 327.501 296.981 328.148C301.104 328.876 304.26 330.325 306.449 332.498C308.678 334.642 309.519 337.256 308.973 340.339C308.721 341.76 308.255 342.982 307.573 344.005C306.898 344.994 306.146 345.808 305.318 346.448C304.53 347.06 303.517 347.738 302.277 348.484C300.921 349.282 299.901 349.995 299.217 350.625C298.54 351.22 298.119 351.985 297.953 352.921L288.7 351.29ZM290.896 365.826C289.198 365.527 287.887 364.76 286.962 363.525C286.043 362.255 285.719 360.858 285.989 359.333C286.265 357.774 287.03 356.587 288.282 355.771C289.569 354.962 291.079 354.71 292.811 355.016C294.544 355.321 295.876 356.074 296.807 357.275C297.738 358.475 298.065 359.855 297.789 361.414C297.519 362.939 296.734 364.14 295.435 365.019C294.142 365.863 292.629 366.132 290.896 365.826Z" fill="white"/>
<path d="M288.7 351.29L288.159 351.194L288.063 351.735L288.605 351.831L288.7 351.29ZM290.599 347.229L290.991 347.615L290.996 347.609L290.599 347.229ZM294.589 344.074L294.887 344.536L294.887 344.535L294.589 344.074ZM297.238 342.129L297.607 342.537L297.612 342.532L297.617 342.527L297.238 342.129ZM297.458 337.559L297.056 337.934L297.065 337.944L297.074 337.953L297.458 337.559ZM290.379 336.364L290.192 335.847L290.185 335.85L290.379 336.364ZM287.188 338.642L286.848 339.074L287.263 339.401L287.606 338.999L287.188 338.642ZM280.18 333.118L279.761 332.762L279.391 333.197L279.839 333.55L280.18 333.118ZM287.213 328.516L287.378 329.041V329.041L287.213 328.516ZM306.449 332.498L306.061 332.888L306.067 332.894L306.449 332.498ZM307.573 344.005L308.027 344.315L308.031 344.31L307.573 344.005ZM305.318 346.448L304.982 346.013L304.981 346.014L305.318 346.448ZM302.277 348.484L302.555 348.958L302.56 348.955L302.277 348.484ZM299.217 350.625L299.58 351.038L299.59 351.029L299.217 350.625ZM297.953 352.921L297.857 353.462L298.399 353.558L298.495 353.016L297.953 352.921ZM286.962 363.525L286.516 363.847L286.522 363.854L286.962 363.525ZM288.282 355.771L287.989 355.306L287.982 355.311L288.282 355.771ZM296.807 357.275L296.372 357.612V357.612L296.807 357.275ZM295.435 365.019L295.735 365.479L295.743 365.474L295.435 365.019ZM289.242 351.385C289.535 349.731 290.13 348.49 290.991 347.615L290.207 346.844C289.151 347.918 288.48 349.383 288.159 351.194L289.242 351.385ZM290.996 347.609C291.922 346.642 293.214 345.616 294.887 344.536L294.29 343.612C292.574 344.721 291.206 345.799 290.202 346.85L290.996 347.609ZM294.887 344.535C296.068 343.771 296.979 343.104 297.607 342.537L296.869 341.721C296.306 342.231 295.451 342.86 294.29 343.613L294.887 344.535ZM297.617 342.527C298.293 341.884 298.724 341.131 298.875 340.274L297.792 340.083C297.687 340.681 297.387 341.229 296.859 341.731L297.617 342.527ZM298.875 340.274C299.087 339.081 298.727 338.027 297.842 337.165L297.074 337.953C297.712 338.574 297.937 339.266 297.792 340.083L298.875 340.274ZM297.86 337.183C297.036 336.303 295.878 335.757 294.445 335.504L294.253 336.587C295.522 336.811 296.438 337.274 297.056 337.934L297.86 337.183ZM294.445 335.504C292.969 335.244 291.548 335.356 290.192 335.847L290.566 336.881C291.731 336.459 292.957 336.358 294.253 336.587L294.445 335.504ZM290.185 335.85C288.868 336.347 287.729 337.163 286.77 338.285L287.606 338.999C288.452 338.009 289.44 337.306 290.573 336.878L290.185 335.85ZM287.529 338.21L280.52 332.687L279.839 333.55L286.848 339.074L287.529 338.21ZM280.598 333.474C282.379 331.382 284.634 329.904 287.378 329.041L287.048 327.992C284.115 328.915 281.681 330.505 279.761 332.762L280.598 333.474ZM287.378 329.041C290.113 328.18 293.277 328.054 296.885 328.69L297.076 327.607C293.338 326.948 289.99 327.067 287.048 327.992L287.378 329.041ZM296.885 328.69C300.937 329.404 303.976 330.818 306.061 332.888L306.836 332.108C304.545 329.833 301.272 328.347 297.076 327.607L296.885 328.69ZM306.067 332.894C308.162 334.909 308.946 337.338 308.431 340.244L309.514 340.435C310.092 337.173 309.193 334.374 306.83 332.102L306.067 332.894ZM308.431 340.244C308.191 341.603 307.748 342.751 307.115 343.701L308.031 344.31C308.761 343.213 309.252 341.917 309.514 340.435L308.431 340.244ZM307.119 343.695C306.471 344.643 305.758 345.413 304.982 346.013L305.654 346.883C306.534 346.203 307.324 345.344 308.027 344.315L307.119 343.695ZM304.981 346.014C304.216 346.608 303.222 347.274 301.993 348.014L302.56 348.955C303.811 348.203 304.845 347.511 305.655 346.882L304.981 346.014ZM301.998 348.011C300.628 348.816 299.57 349.552 298.845 350.221L299.59 351.029C300.232 350.438 301.213 349.747 302.555 348.958L301.998 348.011ZM298.855 350.212C298.078 350.894 297.598 351.774 297.412 352.826L298.495 353.016C298.64 352.197 299.002 351.546 299.58 351.038L298.855 350.212ZM298.049 352.38L288.796 350.748L288.605 351.831L297.857 353.462L298.049 352.38ZM290.992 365.285C289.414 365.007 288.234 364.305 287.402 363.195L286.522 363.854C287.54 365.215 288.982 366.047 290.801 366.368L290.992 365.285ZM287.408 363.202C286.575 362.051 286.287 360.805 286.531 359.429L285.448 359.238C285.151 360.911 285.512 362.459 286.517 363.847L287.408 363.202ZM286.531 359.429C286.782 358.009 287.465 356.959 288.582 356.232L287.982 355.311C286.594 356.215 285.749 357.539 285.448 359.238L286.531 359.429ZM288.574 356.237C289.728 355.511 291.094 355.271 292.715 355.557L292.907 354.474C291.063 354.149 289.41 354.413 287.989 355.306L288.574 356.237ZM292.715 355.557C294.336 355.843 295.538 356.536 296.372 357.612L297.241 356.938C296.214 355.613 294.752 354.8 292.907 354.474L292.715 355.557ZM296.372 357.612C297.203 358.684 297.498 359.905 297.247 361.318L298.33 361.509C298.632 359.805 298.272 358.266 297.241 356.938L296.372 357.612ZM297.247 361.318C297.004 362.694 296.305 363.767 295.127 364.563L295.743 365.474C297.164 364.513 298.034 363.183 298.33 361.509L297.247 361.318ZM295.135 364.558C293.975 365.315 292.608 365.57 290.992 365.285L290.801 366.368C292.65 366.694 294.309 366.41 295.735 365.479L295.135 364.558Z" fill="#202027" mask="url(#path-33-outside-9_18933_834)"/>
<rect x="0.276153" y="0.394712" width="113.73" height="151.867" rx="20.105" transform="matrix(0.984808 0.173648 -0.174411 0.984673 370.481 282.578)" fill="#BCEC30"/>
<rect x="0.276153" y="0.394712" width="113.73" height="151.867" rx="20.105" transform="matrix(0.984808 0.173648 -0.174411 0.984673 370.481 282.578)" stroke="#202027" stroke-width="0.681525"/>
<g filter="url(#filter0_d_18933_834)">
<rect width="148.448" height="197.931" rx="20.4457" transform="matrix(0.984808 0.173648 -0.174411 0.984673 146.736 58.4386)" fill="#E1FF8F"/>
<rect x="-0.276153" y="-0.394712" width="149.13" height="198.613" rx="20.7865" transform="matrix(0.984808 0.173648 -0.174411 0.984673 146.663 58.4805)" stroke="#202027" stroke-width="0.681525"/>
<rect x="-0.276153" y="-0.394712" width="149.13" height="198.613" rx="20.7865" transform="matrix(0.984808 0.173648 -0.174411 0.984673 146.663 58.4805)" stroke="black" stroke-opacity="0.2" stroke-width="0.681525"/>
</g>
<mask id="path-38-outside-10_18933_834" maskUnits="userSpaceOnUse" x="169.015" y="132.317" width="62.5467" height="73.0335" fill="black">
<rect fill="white" x="169.015" y="132.317" width="62.5467" height="73.0335"/>
<path d="M193.893 176.088C194.4 173.225 195.446 170.988 197.03 169.378C198.625 167.71 200.823 165.972 203.624 164.163C205.559 162.909 207.019 161.838 208.003 160.948C208.998 160.002 209.601 158.927 209.814 157.725C210.108 156.064 209.626 154.621 208.366 153.395C207.174 152.121 205.462 151.288 203.228 150.894C200.937 150.49 198.75 150.666 196.667 151.42C194.642 152.185 192.884 153.44 191.394 155.185L179.81 146.056C182.869 142.462 186.743 139.927 191.434 138.451C196.125 136.975 201.506 136.772 207.577 137.842C214.393 139.044 219.609 141.44 223.225 145.031C226.909 148.574 228.3 152.894 227.397 157.99C226.981 160.338 226.21 162.358 225.084 164.049C223.968 165.683 222.725 167.029 221.356 168.086C220.055 169.097 218.38 170.219 216.331 171.452C214.089 172.769 212.404 173.949 211.274 174.99C210.155 175.973 209.459 177.238 209.185 178.784L193.893 176.088ZM197.522 200.113C194.716 199.619 192.548 198.351 191.02 196.309C189.502 194.211 188.966 191.902 189.412 189.382C189.868 186.805 191.131 184.843 193.201 183.495C195.328 182.158 197.823 181.742 200.687 182.247C203.55 182.752 205.752 183.996 207.29 185.98C208.829 187.964 209.37 190.244 208.913 192.821C208.467 195.341 207.17 197.327 205.023 198.779C202.886 200.173 200.386 200.618 197.522 200.113Z"/>
</mask>
<path d="M193.893 176.088C194.4 173.225 195.446 170.988 197.03 169.378C198.625 167.71 200.823 165.972 203.624 164.163C205.559 162.909 207.019 161.838 208.003 160.948C208.998 160.002 209.601 158.927 209.814 157.725C210.108 156.064 209.626 154.621 208.366 153.395C207.174 152.121 205.462 151.288 203.228 150.894C200.937 150.49 198.75 150.666 196.667 151.42C194.642 152.185 192.884 153.44 191.394 155.185L179.81 146.056C182.869 142.462 186.743 139.927 191.434 138.451C196.125 136.975 201.506 136.772 207.577 137.842C214.393 139.044 219.609 141.44 223.225 145.031C226.909 148.574 228.3 152.894 227.397 157.99C226.981 160.338 226.21 162.358 225.084 164.049C223.968 165.683 222.725 167.029 221.356 168.086C220.055 169.097 218.38 170.219 216.331 171.452C214.089 172.769 212.404 173.949 211.274 174.99C210.155 175.973 209.459 177.238 209.185 178.784L193.893 176.088ZM197.522 200.113C194.716 199.619 192.548 198.351 191.02 196.309C189.502 194.211 188.966 191.902 189.412 189.382C189.868 186.805 191.131 184.843 193.201 183.495C195.328 182.158 197.823 181.742 200.687 182.247C203.55 182.752 205.752 183.996 207.29 185.98C208.829 187.964 209.37 190.244 208.913 192.821C208.467 195.341 207.17 197.327 205.023 198.779C202.886 200.173 200.386 200.618 197.522 200.113Z" fill="white"/>
<path d="M193.893 176.088L193.222 175.97L193.103 176.641L193.774 176.759L193.893 176.088ZM197.03 169.378L197.516 169.855L197.523 169.848L197.03 169.378ZM203.624 164.163L203.994 164.735L203.995 164.734L203.624 164.163ZM208.003 160.948L208.46 161.454L208.466 161.448L208.473 161.442L208.003 160.948ZM208.366 153.395L207.869 153.86L207.879 153.872L207.891 153.883L208.366 153.395ZM196.667 151.42L196.436 150.78L196.427 150.783L196.667 151.42ZM191.394 155.185L190.972 155.721L191.486 156.126L191.912 155.628L191.394 155.185ZM179.81 146.056L179.291 145.615L178.833 146.154L179.388 146.592L179.81 146.056ZM191.434 138.451L191.639 139.101L191.639 139.101L191.434 138.451ZM223.225 145.031L222.745 145.514L222.753 145.522L223.225 145.031ZM225.084 164.049L225.647 164.433L225.651 164.426L225.084 164.049ZM221.356 168.086L220.94 167.547L220.939 167.548L221.356 168.086ZM216.331 171.452L216.676 172.04L216.682 172.036L216.331 171.452ZM211.274 174.99L211.724 175.501L211.73 175.496L211.736 175.49L211.274 174.99ZM209.185 178.784L209.066 179.456L209.737 179.574L209.856 178.903L209.185 178.784ZM191.02 196.309L190.467 196.709L190.474 196.718L191.02 196.309ZM193.201 183.495L192.838 182.919L192.829 182.925L193.201 183.495ZM207.29 185.98L206.751 186.398V186.398L207.29 185.98ZM205.023 198.779L205.396 199.349L205.405 199.343L205.023 198.779ZM194.564 176.206C195.054 173.44 196.053 171.343 197.516 169.855L196.545 168.9C194.839 170.633 193.746 173.01 193.222 175.97L194.564 176.206ZM197.523 169.848C199.069 168.232 201.22 166.527 203.994 164.735L203.255 163.59C200.427 165.417 198.182 167.188 196.538 168.907L197.523 169.848ZM203.995 164.734C205.941 163.473 207.436 162.379 208.46 161.454L207.546 160.443C206.601 161.297 205.177 162.345 203.254 163.591L203.995 164.734ZM208.473 161.442C209.559 160.408 210.244 159.206 210.485 157.843L209.143 157.606C208.959 158.648 208.436 159.596 207.533 160.455L208.473 161.442ZM210.485 157.843C210.821 155.949 210.255 154.282 208.842 152.906L207.891 153.883C208.997 154.96 209.396 156.179 209.143 157.606L210.485 157.843ZM208.864 152.929C207.545 151.52 205.682 150.635 203.347 150.223L203.109 151.565C205.241 151.941 206.804 152.723 207.869 153.86L208.864 152.929ZM203.347 150.223C200.945 149.799 198.636 149.982 196.436 150.78L196.899 152.061C198.864 151.349 200.93 151.181 203.109 151.565L203.347 150.223ZM196.427 150.783C194.288 151.591 192.436 152.916 190.876 154.743L191.912 155.628C193.332 153.964 194.996 152.78 196.908 152.058L196.427 150.783ZM191.816 154.65L180.233 145.521L179.388 146.592L190.972 155.721L191.816 154.65ZM180.329 146.498C183.301 143.005 187.065 140.54 191.639 139.101L191.23 137.801C186.422 139.313 182.436 141.918 179.291 145.615L180.329 146.498ZM191.639 139.101C196.202 137.665 201.469 137.457 207.459 138.513L207.696 137.171C201.544 136.087 196.049 136.285 191.23 137.801L191.639 139.101ZM207.459 138.513C214.185 139.7 219.257 142.051 222.745 145.514L223.706 144.547C219.961 140.829 214.601 138.389 207.696 137.171L207.459 138.513ZM222.753 145.522C226.271 148.905 227.59 152.996 226.726 157.872L228.068 158.109C229.01 152.792 227.548 148.242 223.698 144.539L222.753 145.522ZM226.726 157.872C226.324 160.143 225.583 162.071 224.517 163.671L225.651 164.426C226.838 162.645 227.639 160.533 228.068 158.109L226.726 157.872ZM224.521 163.665C223.439 165.248 222.244 166.539 220.94 167.547L221.773 168.625C223.206 167.518 224.496 166.117 225.647 164.433L224.521 163.665ZM220.939 167.548C219.666 168.537 218.015 169.644 215.98 170.868L216.682 172.036C218.745 170.795 220.445 169.657 221.774 168.624L220.939 167.548ZM215.986 170.865C213.727 172.192 211.994 173.4 210.813 174.489L211.736 175.49C212.814 174.497 214.452 173.347 216.676 172.04L215.986 170.865ZM210.825 174.478C209.582 175.57 208.813 176.976 208.514 178.666L209.856 178.903C210.104 177.5 210.728 176.377 211.724 175.501L210.825 174.478ZM209.304 178.113L194.012 175.417L193.774 176.759L209.066 179.456L209.304 178.113ZM197.641 199.442C194.983 198.974 192.978 197.787 191.566 195.901L190.474 196.718C192.119 198.914 194.448 200.263 197.403 200.784L197.641 199.442ZM191.572 195.91C190.161 193.959 189.669 191.836 190.083 189.501L188.741 189.264C188.262 191.968 188.843 194.463 190.467 196.709L191.572 195.91ZM190.083 189.501C190.509 187.097 191.672 185.304 193.573 184.066L192.829 182.925C190.591 184.382 189.228 186.514 188.741 189.264L190.083 189.501ZM193.564 184.072C195.525 182.839 197.843 182.437 200.568 182.918L200.806 181.576C197.803 181.046 195.131 181.477 192.838 182.919L193.564 184.072ZM200.568 182.918C203.293 183.398 205.333 184.568 206.751 186.398L207.829 185.562C206.171 183.424 203.808 182.105 200.806 181.576L200.568 182.918ZM206.751 186.398C208.167 188.222 208.667 190.306 208.242 192.703L209.585 192.939C210.073 190.182 209.491 187.705 207.829 185.562L206.751 186.398ZM208.242 192.703C207.829 195.038 206.638 196.864 204.642 198.214L205.405 199.343C207.703 197.789 209.106 195.643 209.585 192.939L208.242 192.703ZM204.651 198.208C202.679 199.495 200.36 199.922 197.641 199.442L197.403 200.784C200.412 201.315 203.093 200.852 205.396 199.349L204.651 198.208Z" fill="#202027" mask="url(#path-38-outside-10_18933_834)"/>
</g>
<defs>
<filter id="filter0_d_18933_834" x="67.0983" y="29.7282" width="270.947" height="310.908" filterUnits="userSpaceOnUse" color-interpolation-filters="sRGB">
<feFlood flood-opacity="0" result="BackgroundImageFix"/>
<feColorMatrix in="SourceAlpha" type="matrix" values="0 0 0 0 0 0 0 0 0 0 0 0 0 0 0 0 0 0 127 0" result="hardAlpha"/>
<feMorphology radius="9.84355" operator="erode" in="SourceAlpha" result="effect1_dropShadow_18933_834"/>
<feOffset dy="16.4059"/>
<feGaussianBlur stdDeviation="27.4799"/>
<feComposite in2="hardAlpha" operator="out"/>
<feColorMatrix type="matrix" values="0 0 0 0 0 0 0 0 0 0 0 0 0 0 0 0 0 0 0.3 0"/>
<feBlend mode="normal" in2="BackgroundImageFix" result="effect1_dropShadow_18933_834"/>
<feBlend mode="normal" in="SourceGraphic" in2="effect1_dropShadow_18933_834" result="shape"/>
</filter>
<clipPath id="clip0_18933_834">
<rect width="406.228" height="337.449" rx="32.2403" fill="white"/>
</clipPath>
</defs>
</svg>
